<svg fill="none" height="24" viewBox="0 0 24 24" width="24" xmlns="http://www.w3.org/2000/svg">
<path clip-rule="evenodd" d="M12.3982 20.909C14.0046 20.0841 19.9234 16.6554 19.9234 10.9167C19.9234 6.54076 16.376 2.99335 12 2.99335C7.62407 2.99335 4.07666 6.54076 4.07666 10.9167C4.07666 16.6554 9.99544 20.0841 11.6019 20.909C11.8553 21.0392 12.1448 21.0392 12.3982 20.909ZM12 14.3124C13.8754 14.3124 15.3958 12.7921 15.3958 10.9167C15.3958 9.0413 13.8754 7.52098 12 7.52098C10.1246 7.52098 8.6043 9.0413 8.6043 10.9167C8.6043 12.7921 10.1246 14.3124 12 14.3124Z" fill="#E84545" fill-rule="evenodd"/>
</svg>
