<svg fill="none" height="45" viewBox="0 0 172 45" width="172" xmlns="http://www.w3.org/2000/svg">
<path d="M3.762 35C2.81467 35 2.06333 34.7387 1.508 34.216C0.985334 33.6933 0.724 32.9583 0.724 32.011V3.444C0.724 2.49666 0.985334 1.76167 1.508 1.239C2.06333 0.716332 2.81467 0.454998 3.762 0.454998H13.464C19.1153 0.454998 23.4927 1.974 26.596 5.012C29.732 8.01733 31.3 12.2477 31.3 17.703C31.3 23.191 29.732 27.454 26.596 30.492C23.4927 33.4973 19.1153 35 13.464 35H3.762ZM13.072 29.855C21.01 29.855 24.979 25.8043 24.979 17.703C24.979 9.63433 21.01 5.6 13.072 5.6H7.045V29.855H13.072ZM48.0534 35.392C45.6034 35.392 43.4474 34.8857 41.5854 33.873C39.7561 32.8603 38.3351 31.4067 37.3224 29.512C36.3097 27.6173 35.8034 25.4123 35.8034 22.897C35.8034 20.3817 36.3097 18.193 37.3224 16.331C38.3351 14.4363 39.7561 12.9827 41.5854 11.97C43.4474 10.9573 45.6034 10.451 48.0534 10.451C50.5034 10.451 52.6431 10.9573 54.4724 11.97C56.3344 12.9827 57.7554 14.4363 58.7354 16.331C59.7481 18.193 60.2544 20.3817 60.2544 22.897C60.2544 25.4123 59.7481 27.6173 58.7354 29.512C57.7554 31.4067 56.3344 32.8603 54.4724 33.873C52.6431 34.8857 50.5034 35.392 48.0534 35.392ZM48.0044 30.639C49.9971 30.639 51.5161 29.9857 52.5614 28.679C53.6067 27.3723 54.1294 25.445 54.1294 22.897C54.1294 20.3817 53.6067 18.4707 52.5614 17.164C51.5161 15.8247 50.0134 15.155 48.0534 15.155C46.0934 15.155 44.5744 15.8247 43.4964 17.164C42.4511 18.4707 41.9284 20.3817 41.9284 22.897C41.9284 25.445 42.4511 27.3723 43.4964 28.679C44.5417 29.9857 46.0444 30.639 48.0044 30.639ZM78.688 10.549C79.5373 10.4837 80.207 10.6633 80.697 11.088C81.187 11.5127 81.432 12.1497 81.432 12.999C81.432 13.881 81.2196 14.5343 80.795 14.959C80.3703 15.3837 79.6026 15.6613 78.492 15.792L77.022 15.939C75.0946 16.135 73.6736 16.7883 72.759 17.899C71.877 19.0097 71.436 20.398 71.436 22.064V32.354C71.436 33.3013 71.142 34.0363 70.554 34.559C69.966 35.049 69.231 35.294 68.349 35.294C67.467 35.294 66.732 35.049 66.144 34.559C65.5886 34.0363 65.311 33.3013 65.311 32.354V13.391C65.311 12.4763 65.5886 11.774 66.144 11.284C66.732 10.794 67.4506 10.549 68.3 10.549C69.1493 10.549 69.8353 10.794 70.358 11.284C70.8806 11.7413 71.142 12.411 71.142 13.293V15.253C71.7626 13.8157 72.6773 12.705 73.886 11.921C75.1273 11.137 76.4993 10.696 78.002 10.598L78.688 10.549Z" fill="#2B2E4A"/>
<path d="M97.8378 10.451C99.8958 10.451 101.725 10.9737 103.326 12.019C104.959 13.0643 106.217 14.5507 107.099 16.478C108.013 18.3727 108.471 20.5613 108.471 23.044C108.471 25.5267 108.013 27.699 107.099 29.561C106.217 31.423 104.975 32.8603 103.375 33.873C101.774 34.8857 99.9285 35.392 97.8378 35.392C96.1391 35.392 94.6201 35.0327 93.2808 34.314C91.9415 33.5953 90.9125 32.599 90.1938 31.325V41.321C90.1938 42.1703 89.9161 42.84 89.3608 43.33C88.8055 43.82 88.0705 44.065 87.1558 44.065C86.2411 44.065 85.4898 43.8037 84.9018 43.281C84.3465 42.7583 84.0688 42.0723 84.0688 41.223V13.44C84.0688 12.558 84.3301 11.8557 84.8528 11.333C85.4081 10.8103 86.1431 10.549 87.0578 10.549C87.9725 10.549 88.7075 10.8103 89.2628 11.333C89.8181 11.8557 90.0958 12.558 90.0958 13.44V14.665C90.8145 13.3257 91.8435 12.2967 93.1828 11.578C94.5548 10.8267 96.1065 10.451 97.8378 10.451ZM96.2208 30.639C98.1481 30.639 99.6508 29.9857 100.729 28.679C101.807 27.3397 102.346 25.4613 102.346 23.044C102.346 20.5613 101.807 18.634 100.729 17.262C99.6508 15.89 98.1481 15.204 96.2208 15.204C94.2608 15.204 92.7418 15.8737 91.6638 17.213C90.6185 18.5523 90.0958 20.4633 90.0958 22.946C90.0958 25.396 90.6185 27.2907 91.6638 28.63C92.7418 29.9693 94.2608 30.639 96.2208 30.639ZM116.536 35.294C115.654 35.294 114.919 35.049 114.331 34.559C113.775 34.0363 113.498 33.3013 113.498 32.354V3.101C113.498 2.15367 113.775 1.435 114.331 0.944997C114.919 0.454998 115.654 0.209998 116.536 0.209998C117.418 0.209998 118.153 0.454998 118.741 0.944997C119.329 1.435 119.623 2.15367 119.623 3.101V32.354C119.623 33.3013 119.329 34.0363 118.741 34.559C118.153 35.049 117.418 35.294 116.536 35.294ZM136.327 10.451C139.659 10.451 142.125 11.284 143.726 12.95C145.359 14.5833 146.176 17.0823 146.176 20.447V32.403C146.176 33.285 145.915 33.9873 145.392 34.51C144.869 35 144.151 35.245 143.236 35.245C142.387 35.245 141.684 34.9837 141.129 34.461C140.606 33.9383 140.345 33.2523 140.345 32.403V31.325C139.79 32.599 138.908 33.5953 137.699 34.314C136.523 35.0327 135.151 35.392 133.583 35.392C131.982 35.392 130.529 35.0653 129.222 34.412C127.915 33.7587 126.886 32.8603 126.135 31.717C125.384 30.5737 125.008 29.2997 125.008 27.895C125.008 26.131 125.449 24.7427 126.331 23.73C127.246 22.7173 128.716 21.9823 130.741 21.525C132.766 21.0677 135.559 20.839 139.12 20.839H140.345V19.712C140.345 18.1113 140.002 16.9517 139.316 16.233C138.63 15.4817 137.519 15.106 135.984 15.106C135.037 15.106 134.073 15.253 133.093 15.547C132.113 15.8083 130.953 16.2003 129.614 16.723C128.765 17.1477 128.144 17.36 127.752 17.36C127.164 17.36 126.674 17.1477 126.282 16.723C125.923 16.2983 125.743 15.743 125.743 15.057C125.743 14.5017 125.874 14.028 126.135 13.636C126.429 13.2113 126.903 12.8193 127.556 12.46C128.699 11.8393 130.055 11.3493 131.623 10.99C133.224 10.6307 134.792 10.451 136.327 10.451ZM134.808 30.982C136.441 30.982 137.764 30.443 138.777 29.365C139.822 28.2543 140.345 26.8333 140.345 25.102V24.073H139.463C137.274 24.073 135.576 24.171 134.367 24.367C133.158 24.563 132.293 24.906 131.77 25.396C131.247 25.886 130.986 26.5557 130.986 27.405C130.986 28.4503 131.345 29.316 132.064 30.002C132.815 30.6553 133.73 30.982 134.808 30.982ZM161.074 35.392C157.513 35.392 154.638 34.6897 152.45 33.285C151.404 32.6643 150.882 31.7823 150.882 30.639C150.882 29.9857 151.061 29.463 151.421 29.071C151.78 28.6463 152.221 28.434 152.744 28.434C153.299 28.434 154.067 28.6953 155.047 29.218C156.092 29.708 157.039 30.0837 157.889 30.345C158.771 30.6063 159.881 30.737 161.221 30.737C162.593 30.737 163.654 30.5083 164.406 30.051C165.19 29.5937 165.582 28.9567 165.582 28.14C165.582 27.5847 165.418 27.1437 165.092 26.817C164.798 26.4903 164.242 26.1963 163.426 25.935C162.642 25.641 161.433 25.3143 159.8 24.955C156.892 24.367 154.802 23.534 153.528 22.456C152.286 21.378 151.666 19.8917 151.666 17.997C151.666 16.5597 152.09 15.2693 152.94 14.126C153.789 12.95 154.949 12.0517 156.419 11.431C157.921 10.7777 159.62 10.451 161.515 10.451C162.887 10.451 164.21 10.6307 165.484 10.99C166.758 11.3167 167.901 11.8067 168.914 12.46C169.959 13.1133 170.482 13.979 170.482 15.057C170.482 15.7103 170.302 16.2657 169.943 16.723C169.583 17.1477 169.142 17.36 168.62 17.36C168.26 17.36 167.901 17.2947 167.542 17.164C167.215 17.0007 166.79 16.772 166.268 16.478C165.32 15.988 164.504 15.6287 163.818 15.4C163.132 15.1387 162.282 15.008 161.27 15.008C160.061 15.008 159.097 15.253 158.379 15.743C157.693 16.233 157.35 16.9027 157.35 17.752C157.35 18.5687 157.709 19.1893 158.428 19.614C159.146 20.0387 160.535 20.4633 162.593 20.888C164.781 21.3453 166.496 21.868 167.738 22.456C168.979 23.044 169.861 23.779 170.384 24.661C170.939 25.543 171.217 26.67 171.217 28.042C171.217 30.2633 170.286 32.0437 168.424 33.383C166.594 34.7223 164.144 35.392 161.074 35.392Z" fill="#E91E63"/>
</svg>
