<svg width="1024" height="768" viewBox="0 0 1024 768" fill="none" xmlns="http://www.w3.org/2000/svg">
<g clip-path="url(#clip0_1008_1219)">
<rect width="1025" height="770" transform="translate(0 -2)" fill="white" fill-opacity="0.5"/>
<path d="M177.655 248.588L237.806 310.096L213.729 182.29L177.655 248.588ZM238.201 311.766L176.867 249.046L176.791 248.416L213.576 180.813L214.301 180.97L238.852 311.294L238.201 311.766Z" fill="#E84545" fill-opacity="0.05"/>
<path d="M997.598 552.266L1037.65 773.186L1035.64 388.556L997.598 552.266ZM1037.68 777.889L996.797 552.355L996.805 552.123L1035.64 384.992L1036.43 385.119L1038.48 777.784L1037.68 777.889Z" fill="#E84545" fill-opacity="0.05"/>
<path d="M29.6474 556.928L-10.1436 775.803L36.5986 686.101L29.6474 556.928ZM-10.6866 778.658L-11.417 778.3L29.4723 553.383L30.2627 553.456L37.4059 686.195L37.3459 686.482L-10.6866 778.658Z" fill="#E84545" fill-opacity="0.05"/>
<path d="M943.344 735.911L1035.83 776.295L993.97 737.086L943.344 735.911ZM1037.94 778.239L940.806 735.826L940.95 734.894L994.114 736.127L994.354 736.228L1038.32 777.406L1037.94 778.239Z" fill="#E84545" fill-opacity="0.05"/>
<path d="M885.424 762.105L1035.13 777.01L940.95 735.889L885.424 762.105ZM1038.05 778.266L883.639 762.893L883.526 761.966L940.798 734.926L941.078 734.922L1038.21 777.334L1038.05 778.266Z" fill="#E84545" fill-opacity="0.05"/>
<path d="M-10.6255 -1.27905V374.824L6.96288 149.163L-10.6255 -1.27905ZM-10.6271 385.167L-11.4263 385.121V-8.1619L-10.6293 -8.22931L7.76242 149.084L7.76492 149.195L-10.6271 385.167Z" fill="#E84545" fill-opacity="0.05"/>
<path d="M-10.6255 387.571V763.619L6.96038 439.283L-10.6255 387.571ZM-10.6261 778.435L-11.4263 778.404V385.121L-10.6553 384.94L7.73645 439.021L7.76555 439.235L-10.6261 778.435Z" fill="#E84545" fill-opacity="0.05"/>
<path d="M38.5708 686.19L82.7891 699.181L93.5964 667.321L38.5708 686.19ZM82.934 700.214L36.9116 686.693L36.897 685.764L94.1682 666.125L94.6487 666.769L83.4001 699.928L82.934 700.214Z" fill="#E84545" fill-opacity="0.05"/>
<path d="M26.4026 148.934L65.2095 166.882L60.2181 96.3408L26.4026 148.934ZM65.519 168.057L25.6134 149.601L25.4404 148.857L60.2135 94.7738L60.9288 95.0279L66.0617 167.567L65.519 168.057Z" fill="#E84545" fill-opacity="0.05"/>
<path d="M26.1577 149.851V245.71L65.0745 167.85L26.1577 149.851ZM26.1009 247.693L25.3569 247.446V149.151L25.9012 148.701L65.807 167.158L66.0066 167.855L26.1009 247.693Z" fill="#E84545" fill-opacity="0.05"/>
<path d="M7.52901 152.217L-10.285 380.775L25.343 247.423L7.52901 152.217ZM-10.6447 385.269L-11.4248 385.076L6.96721 149.107L7.75642 149.045L26.1478 247.34L26.1384 247.593L-10.6447 385.269Z" fill="#E84545" fill-opacity="0.05"/>
<path d="M7.86645 149.632L25.3569 243.113V149.632H7.86645ZM25.3669 247.551L6.97559 149.257L7.36597 148.67H25.7573L26.1577 149.151V247.446L25.3669 247.551Z" fill="#E84545" fill-opacity="0.05"/>
<path d="M30.3571 555.206L37.3739 685.599L93.6329 666.309L30.3571 555.206ZM37.1161 686.689L36.6069 686.257L29.4634 553.517L30.1935 553.215L94.6082 666.316L94.3872 667.05L37.1161 686.689Z" fill="#E84545" fill-opacity="0.05"/>
<path d="M7.59172 442.441L-10.2798 772.045L29.4527 553.491L7.59172 442.441ZM-10.6348 778.505L-11.4253 778.372L6.96642 439.172L7.75563 439.092L30.2529 553.376L30.2545 553.589L-10.6348 778.505Z" fill="#E84545" fill-opacity="0.05"/>
<path d="M65.7294 168.41L26.7723 246.35L95.6671 207.957L65.7294 168.41ZM25.9258 247.882L25.4141 247.198L65.3199 167.36L65.9593 167.284L96.6265 207.794L96.4992 208.555L25.9258 247.882Z" fill="#E84545" fill-opacity="0.05"/>
<path d="M246.11 100.761L145.95 147.241L240.176 140.108L246.11 100.761ZM143.405 148.397L143.236 147.469L246.487 99.5545L247.025 100.09L240.909 140.651L240.54 141.046L143.405 148.397Z" fill="#E84545" fill-opacity="0.05"/>
<path d="M25.7551 249.029L-9.81551 382.166L38.6186 297.798L25.7551 249.029ZM-10.696 385.395L-11.4067 384.974L25.3763 247.299L26.1393 247.301L39.4409 297.733L39.3891 298.152L-10.696 385.395Z" fill="#E84545" fill-opacity="0.05"/>
<path d="M8.00163 440.34L29.9878 552.026L56.991 482.392L8.00163 440.34ZM30.2264 553.689L29.4742 553.597L6.97656 439.315L7.59873 438.811L57.7273 481.841L57.8578 482.437L30.2264 553.689Z" fill="#E84545" fill-opacity="0.05"/>
<path d="M39.8294 298.251L97.9827 383.772V289.785L39.8294 298.251ZM98.0732 385.426L38.749 298.182L39.0111 297.4L98.3351 288.763L98.7835 289.241V385.121L98.0732 385.426Z" fill="#E84545" fill-opacity="0.05"/>
<path d="M8.45857 148.669H25.5605L57.8955 98.3787L8.45857 148.669ZM25.757 149.632H7.36563L7.10693 148.783L60.2713 94.7001L60.8469 95.3623L26.0738 149.445L25.757 149.632Z" fill="#E84545" fill-opacity="0.05"/>
<path d="M-10.4339 -6.55659L7.66129 148.22L59.9682 95.0093L-10.4339 -6.55659ZM7.62468 149.519L6.96936 149.218L-11.4224 -8.09467L-10.7182 -8.47008L60.8378 94.76L60.789 95.4356L7.62468 149.519Z" fill="#E84545" fill-opacity="0.05"/>
<path d="M61.7294 95.2883L142.903 147.068L136.868 78.4147L61.7294 95.2883ZM143.192 148.342L60.3428 95.4933L60.457 94.5944L137.148 77.3723L137.618 77.7949L143.778 147.867L143.192 148.342Z" fill="#E84545" fill-opacity="0.05"/>
<path d="M60.9915 95.9075L66.0237 167.024L142.217 147.721L60.9915 95.9075ZM65.7456 168.079L65.2642 167.648L60.1313 95.1096L60.7178 94.6428L143.567 147.492L143.463 148.389L65.7456 168.079Z" fill="#E84545" fill-opacity="0.05"/>
<path d="M37.193 686.775L-9.64651 776.664L82.0728 699.962L37.193 686.775ZM-10.7967 778.798L-11.3647 778.148L36.6678 685.97L37.1022 685.759L83.125 699.28L83.2588 700.142L-10.7967 778.798Z" fill="#E84545" fill-opacity="0.05"/>
<path d="M156.09 557.786L95.1098 665.969L148.102 657.524L156.09 557.786ZM94.3307 667.065L93.9463 666.318L156.307 555.684L157.037 556L148.869 657.997L148.523 658.428L94.3307 667.065Z" fill="#E84545" fill-opacity="0.05"/>
<path d="M137.674 78.4262L143.723 147.242L245.125 100.185L137.674 78.4262ZM143.524 148.366L142.982 147.968L136.822 77.8968L137.287 77.3713L246.697 99.528L246.775 100.452L143.524 148.366Z" fill="#E84545" fill-opacity="0.05"/>
<path d="M98.1063 385.824L9.47946 438.484L106.061 427.722L98.1063 385.824ZM7.40306 439.684L7.18848 438.772L98.2064 384.69L98.7742 385.015L106.944 428.043L106.591 428.629L7.40306 439.684Z" fill="#E84545" fill-opacity="0.05"/>
<path d="M8.47396 439.564L57.4634 481.615L105.406 428.761L8.47396 439.564ZM57.2619 482.625L7.1333 439.596L7.3288 438.725L106.516 427.671L106.824 428.504L57.7648 482.588L57.2619 482.625Z" fill="#E84545" fill-opacity="0.05"/>
<path d="M30.6315 553.983L94.2763 665.732L155.892 556.421L30.6315 553.983ZM93.9472 666.859L29.5332 553.758L29.8701 553.005L156.646 555.472L156.97 556.224L94.6094 666.857L93.9472 666.859Z" fill="#E84545" fill-opacity="0.05"/>
<path d="M-9.74868 -7.07037L60.5427 94.3348L99.744 42.4195L-9.74868 -7.07037ZM60.8261 95.3916L60.2221 95.3762L-11.334 -7.85381L-10.8858 -8.6123L100.577 41.7679L100.732 42.5417L60.8261 95.3916Z" fill="#E84545" fill-opacity="0.05"/>
<path d="M-10.2623 384.64H97.54L39.0871 298.679L-10.2623 384.64ZM98.384 385.603H-11.0252L-11.355 384.848L38.7304 297.605L39.3702 297.574L98.6947 384.817L98.384 385.603Z" fill="#E84545" fill-opacity="0.05"/>
<path d="M-10.4293 385.602L7.57418 438.543L96.6705 385.602H-10.4293ZM7.54353 439.635L6.99519 439.386L-11.3965 385.304L-11.0258 384.64H98.3834L98.5612 385.552L7.54353 439.635Z" fill="#E84545" fill-opacity="0.05"/>
<path d="M26.4185 248.359L39.3408 297.353L96.9717 288.962L26.4185 248.359ZM39.1075 298.356L38.6777 298.023L25.376 247.59L25.9303 247.011L98.5564 288.807L98.4315 289.719L39.1075 298.356Z" fill="#E84545" fill-opacity="0.05"/>
<path d="M26.6965 247.453L97.9629 288.466L95.949 208.86L26.6965 247.453ZM98.2112 289.676L25.5845 247.88L25.5889 247.009L96.162 207.681L96.7305 208.103L98.7837 289.226L98.2112 289.676Z" fill="#E84545" fill-opacity="0.05"/>
<path d="M203.525 421.363L252.677 503.327L274.736 432.202L203.525 421.363ZM252.465 504.62L202.337 421.028L202.712 420.269L275.339 431.323L275.663 431.969L253.165 504.507L252.465 504.62Z" fill="#E84545" fill-opacity="0.05"/>
<path d="M66.4301 167.904L96.3351 207.409L142.216 148.704L66.4301 167.904ZM96.6226 208.447L96.0348 208.442L65.3672 167.931L65.5805 167.136L143.298 147.446L143.672 148.247L96.6226 208.447Z" fill="#E84545" fill-opacity="0.05"/>
<path d="M83.9987 699.673L158.186 733.396L148.164 658.692L83.9987 699.673ZM158.551 734.591L82.8873 700.198L82.8408 699.322L148.281 657.526L148.865 657.874L159.087 734.063L158.551 734.591Z" fill="#E84545" fill-opacity="0.05"/>
<path d="M100.48 42.8783L61.6264 94.3317L136.292 77.5649L100.48 42.8783ZM60.6039 95.5415L60.2339 94.7446L100.14 41.8946L100.688 41.8436L137.472 77.4716L137.294 78.3195L60.6039 95.5415Z" fill="#E84545" fill-opacity="0.05"/>
<path d="M101.321 42.4556L137.111 77.122L162.997 24.4992L101.321 42.4556ZM136.969 78.2202L100.185 42.5923L100.343 41.7501L163.73 23.2952L164.169 24.0074L137.566 78.0903L136.969 78.2202Z" fill="#E84545" fill-opacity="0.05"/>
<path d="M94.5602 667.029L83.8169 698.699L146.32 658.778L94.5602 667.029ZM83.2163 700.171L82.6582 699.565L93.9068 666.406L94.2247 666.111L148.417 657.473L148.658 658.375L83.2163 700.171Z" fill="#E84545" fill-opacity="0.05"/>
<path d="M83.0836 700.286L-9.15204 777.422L157.284 734.015L83.0836 700.286ZM-10.9419 778.873L-11.2554 778.008L82.7993 699.353L83.1701 699.297L158.833 733.69L158.776 734.611L-10.9419 778.873Z" fill="#E84545" fill-opacity="0.05"/>
<path d="M59.4642 483.131L156.255 555.102L157.257 503.509L59.4642 483.131ZM156.428 556.362L57.2837 482.642L57.5627 481.759L157.734 502.632L158.065 503.117L157.039 555.965L156.428 556.362Z" fill="#E84545" fill-opacity="0.05"/>
<path d="M30.4871 553.018L155.192 555.444L57.667 482.927L30.4871 553.018ZM156.632 556.435L29.8568 553.968L29.5005 553.283L57.1314 482.03L57.7051 481.824L156.85 555.545L156.632 556.435Z" fill="#E84545" fill-opacity="0.05"/>
<path d="M58.3652 481.926L156.674 502.411L106.512 428.849L58.3652 481.926ZM157.597 503.579L57.4262 482.707L57.2241 481.879L106.283 427.796L106.863 427.845L157.975 502.8L157.597 503.579Z" fill="#E84545" fill-opacity="0.05"/>
<path d="M149.807 664.892L158.974 733.22L165.419 726.627L149.807 664.892ZM158.952 734.507L158.297 734.217L148.075 658.028L148.854 657.811L166.261 726.648L166.138 727.154L158.952 734.507Z" fill="#E84545" fill-opacity="0.05"/>
<path d="M158.204 556.808L253.458 645.952L256.434 579.688L158.204 556.808ZM253.571 647.277L156.393 556.334L156.715 555.481L256.929 578.822L257.253 579.321L254.216 646.924L253.571 647.277Z" fill="#E84545" fill-opacity="0.05"/>
<path d="M195.224 -10.0262L104.298 40.5993L163.634 23.3234L195.224 -10.0262ZM100.531 42.686L100.269 41.7822L197.403 -12.3006L197.836 -11.5027L164.089 24.1252L163.919 24.231L100.531 42.686Z" fill="#E84545" fill-opacity="0.05"/>
<path d="M97.0179 207.942L176.398 247.792L143.242 148.796L97.0179 207.942ZM176.972 249.124L96.1763 208.562L96.0386 207.789L143.088 147.588L143.752 147.738L177.498 248.5L176.972 249.124Z" fill="#E84545" fill-opacity="0.05"/>
<path d="M158.69 734.633L-5.77125 777.525L246.89 758.495L158.69 734.633ZM-11.0011 778.884L-11.1108 777.933L158.607 733.67H158.78L249.798 758.296L249.736 759.245L-11.0011 778.884Z" fill="#E84545" fill-opacity="0.05"/>
<path d="M170.609 376.714L202.417 419.692L212.354 355.174L170.609 376.714ZM202.362 421.067L169.642 376.855L169.783 376.093L212.726 353.935L213.278 354.465L203.055 420.835L202.362 421.067Z" fill="#E84545" fill-opacity="0.05"/>
<path d="M98.8748 385.547L106.813 427.357L168.407 377.203L98.8748 385.547ZM106.778 428.548L106.163 428.258L97.9932 385.228L98.3439 384.643L169.901 376.056L170.165 376.933L106.778 428.548Z" fill="#E84545" fill-opacity="0.05"/>
<path d="M-8.90654 -7.71841L100.421 41.6973L195.694 -11.3489L-8.90654 -7.71841ZM100.297 42.6685L-11.1665 -7.71263L-11.0317 -8.64336L197.566 -12.3451L197.74 -11.4279L100.605 42.655L100.297 42.6685Z" fill="#E84545" fill-opacity="0.05"/>
<path d="M973.085 617.381L1036.99 774.012L997.053 553.774L973.085 617.381ZM1037.72 777.998L972.276 617.6V617.19L996.82 552.054L997.581 552.149L1038.47 777.684L1037.72 777.998Z" fill="#E84545" fill-opacity="0.05"/>
<path d="M483.772 90.4982L543.953 158.042L558.012 80.8636L483.772 90.4982ZM543.921 159.322L482.586 90.4838L482.817 89.6541L558.478 79.8347L558.912 80.4161L544.585 159.073L543.921 159.322Z" fill="#E84545" fill-opacity="0.05"/>
<path d="M171.559 311.238L99.6244 384.489L169.553 376.098L171.559 311.238ZM98.4232 385.6L98.1245 384.754L171.735 309.799L172.394 310.184L170.341 376.553L169.981 377.014L98.4232 385.6Z" fill="#E84545" fill-opacity="0.05"/>
<path d="M98.7837 289.849V384.083L171.13 310.415L98.7837 289.849ZM98.6428 385.489L97.9829 385.121V289.241L98.4762 288.773L172.086 309.697L172.252 310.532L98.6428 385.489Z" fill="#E84545" fill-opacity="0.05"/>
<path d="M96.7497 208.849L98.7661 288.521L176.099 248.685L96.7497 208.849ZM98.541 289.684L97.9829 289.256L95.9297 208.132L96.4846 207.674L177.281 248.235L177.284 249.122L98.541 289.684Z" fill="#E84545" fill-opacity="0.05"/>
<path d="M99.6576 289.109L171.641 309.571L176.661 249.443L99.6576 289.109ZM171.902 310.634L98.2914 289.71L98.2266 288.799L176.969 248.237L177.525 248.727L172.392 310.214L171.902 310.634Z" fill="#E84545" fill-opacity="0.05"/>
<path d="M994.466 736.335L1036.96 776.123L973.726 621.143L994.466 736.335ZM1037.84 778.167L993.865 736.987L993.721 736.709L972.244 617.491L972.997 617.178L1038.44 777.575L1037.84 778.167Z" fill="#E84545" fill-opacity="0.05"/>
<path d="M164.455 23.738L245.426 98.2875L197.454 -11.0997L164.455 23.738ZM246.388 100.386L163.58 24.1452L163.56 23.4012L197.307 -12.2248L197.926 -12.0882L246.985 99.7794L246.388 100.386Z" fill="#E84545" fill-opacity="0.05"/>
<path d="M137.862 77.4883L245.107 99.2071L163.939 24.4757L137.862 77.4883ZM246.565 100.479L137.154 78.3208L136.876 77.6018L163.48 23.518L164.068 23.3813L246.874 99.6219L246.565 100.479Z" fill="#E84545" fill-opacity="0.05"/>
<path d="M169.875 377.17L107.996 427.557L201.817 420.329L169.875 377.17ZM106.579 428.63L106.329 427.751L169.716 376.136L170.24 376.215L202.96 420.427L202.687 421.227L106.579 428.63Z" fill="#E84545" fill-opacity="0.05"/>
<path d="M107.358 428.571L157.63 502.294L201.887 421.289L107.358 428.571ZM157.355 503.412L106.244 428.456L106.528 427.67L202.636 420.267L202.996 421.011L158 503.37L157.355 503.412Z" fill="#E84545" fill-opacity="0.05"/>
<path d="M172.362 311.212L170.365 375.793L212.151 354.232L172.362 311.212ZM170.099 376.978L169.541 376.517L171.594 310.148L172.262 309.809L213.152 354.02L213.042 354.82L170.099 376.978Z" fill="#E84545" fill-opacity="0.05"/>
<path d="M144.097 148.772L177.211 247.644L213.306 181.308L144.097 148.772ZM177.461 248.943L176.755 248.859L143.008 148.097L143.526 147.468L214.057 180.628L214.246 181.339L177.461 248.943Z" fill="#E84545" fill-opacity="0.05"/>
<path d="M157.961 555.771L256.42 578.703L252.428 505.061L157.961 555.771ZM256.777 579.768L156.562 556.427L156.475 555.515L252.626 503.9L253.189 504.309L257.253 579.263L256.777 579.768Z" fill="#E84545" fill-opacity="0.05"/>
<path d="M172.436 309.692L237.353 310.897L177.449 249.641L172.436 309.692ZM238.455 311.881L171.987 310.647L171.596 310.118L176.728 248.631L177.386 248.313L238.721 311.033L238.455 311.881Z" fill="#E84545" fill-opacity="0.05"/>
<path d="M173.055 310.667L212.819 353.66L237.691 311.867L173.055 310.667ZM212.616 354.735L171.726 310.524L172 309.685L238.467 310.918L238.787 311.68L213.21 354.657L212.616 354.735Z" fill="#E84545" fill-opacity="0.05"/>
<path d="M203.132 420.333L274.207 431.151L213.137 355.382L203.132 420.333ZM275.237 432.278L202.611 421.224L202.268 420.66L212.49 354.289L213.172 354.043L275.575 431.465L275.237 432.278Z" fill="#E84545" fill-opacity="0.05"/>
<path d="M145.21 148.26L213.78 180.497L239.644 141.113L145.21 148.26ZM213.765 181.524L143.234 148.365L143.355 147.436L240.489 140.085L240.829 140.863L214.225 181.374L213.765 181.524Z" fill="#E84545" fill-opacity="0.05"/>
<path d="M445.638 24.0183L482.439 88.5443L481.44 9.72322L445.638 24.0183ZM482.53 90.4048L444.676 24.0356L444.88 23.307L481.706 8.60291L482.233 9.05238L483.26 90.1247L482.53 90.4048Z" fill="#E84545" fill-opacity="0.05"/>
<path d="M159.562 733.883L240.708 755.836L165.967 727.327L159.562 733.883ZM249.623 759.235L158.604 734.611L158.432 733.773L165.618 726.422L165.999 726.329L249.832 758.306L249.623 759.235Z" fill="#E84545" fill-opacity="0.05"/>
<path d="M305.314 33.7935L248.763 98.2358L299.442 68.9305L305.314 33.7935ZM246.805 100.437L246.355 99.6545L305.68 32.0504L306.348 32.4951L300.189 69.356L299.969 69.6948L246.805 100.437Z" fill="#E84545" fill-opacity="0.05"/>
<path d="M156.968 556.871L148.914 657.42L252.766 646.525L156.968 556.871ZM148.505 658.43L148.072 657.904L156.241 555.908L156.885 555.574L254.062 646.518L253.851 647.377L148.505 658.43Z" fill="#E84545" fill-opacity="0.05"/>
<path d="M166.737 726.61L249.334 758.116L253.379 647.899L166.737 726.61ZM249.589 759.224L165.756 727.246L165.636 726.404L253.576 646.514L254.216 646.919L250.111 758.787L249.589 759.224Z" fill="#E84545" fill-opacity="0.05"/>
<path d="M158.056 503.592L157.054 555.204L250.956 504.798L158.056 503.592ZM156.803 556.393L156.238 555.943L157.265 503.094L157.67 502.624L252.795 503.858L252.953 504.779L156.803 556.393Z" fill="#E84545" fill-opacity="0.05"/>
<path d="M158.402 502.634L252.002 503.849L202.677 421.596L158.402 502.634ZM252.786 504.821L157.661 503.587L157.331 502.842L202.327 420.483L202.986 420.466L253.115 504.059L252.786 504.821Z" fill="#E84545" fill-opacity="0.05"/>
<path d="M148.997 658.378L166.094 725.989L252.465 647.523L148.997 658.378ZM166.119 727.171L165.494 726.928L148.087 658.091L148.435 657.471L253.781 646.419L254.058 647.281L166.119 727.171Z" fill="#E84545" fill-opacity="0.05"/>
<path d="M198.394 -11.0198L246.739 99.2173L305.199 32.5988L198.394 -11.0198ZM246.907 100.352L246.276 100.227L197.217 -11.6396L197.7 -12.3201L306.083 31.9434L306.231 32.7489L246.907 100.352Z" fill="#E84545" fill-opacity="0.05"/>
<path d="M328.036 349.012L354.085 451.462L388.187 373.111L328.036 349.012ZM354.342 452.947L353.605 452.865L327.043 348.401L327.553 347.804L388.887 372.377L389.115 373.056L354.342 452.947Z" fill="#E84545" fill-opacity="0.05"/>
<path d="M239.771 311.657L310.709 354.867L315.725 298.443L239.771 311.657ZM310.864 356.04L238.281 311.829L238.404 310.923L316.121 297.402L316.576 297.929L311.443 355.663L310.864 356.04Z" fill="#E84545" fill-opacity="0.05"/>
<path d="M296.615 239.732L239.563 310.722L315.619 297.489L296.615 239.732ZM238.518 311.875L238.173 311.066L296.471 238.526L297.131 238.684L316.55 297.701L316.235 298.355L238.518 311.875Z" fill="#E84545" fill-opacity="0.05"/>
<path d="M294.735 161.215L375.158 181.741L393.286 87.5039L294.735 161.215ZM375.376 182.781L293.596 161.909L293.468 161.029L393.682 86.0746L394.284 86.5914L375.85 182.419L375.376 182.781Z" fill="#E84545" fill-opacity="0.05"/>
<path d="M247.292 100.155L293.353 160.302L299.342 70.0576L247.292 100.155ZM293.385 161.765L246.336 100.329L246.457 99.5698L299.623 68.8266L300.195 69.2992L294.078 161.476L293.385 161.765Z" fill="#E84545" fill-opacity="0.05"/>
<path d="M240.971 140.238L292.347 160.408L246.882 101.041L240.971 140.238ZM293.555 161.896L240.39 141.023L240.12 140.479L246.237 99.9172L246.925 99.6776L293.973 161.112L293.555 161.896Z" fill="#E84545" fill-opacity="0.05"/>
<path d="M240.656 141.127L214.904 180.34L292.118 161.332L240.656 141.127ZM213.991 181.548L213.597 180.778L240.2 140.267L240.639 140.108L293.804 160.981L293.76 161.909L213.991 181.548Z" fill="#E84545" fill-opacity="0.05"/>
<path d="M214.504 182.046L238.688 310.424L296.116 238.967L214.504 182.046ZM238.749 311.733L238.071 311.505L213.521 181.182L214.111 180.659L296.96 238.444L297.047 239.195L238.749 311.733Z" fill="#E84545" fill-opacity="0.05"/>
<path d="M215.021 181.294L296.324 238L293.302 162.022L215.021 181.294ZM296.558 239.276L213.709 181.493L213.83 180.604L293.599 160.966L294.079 161.415L297.159 238.837L296.558 239.276Z" fill="#E84545" fill-opacity="0.05"/>
<path d="M512.596 -7.06989L483.455 89.5709L557.843 79.917L512.596 -7.06989ZM482.902 90.6104L482.482 89.9684L512.123 -8.32692L512.839 -8.41838L558.861 80.0575L558.564 80.7919L482.902 90.6104Z" fill="#E84545" fill-opacity="0.05"/>
<path d="M317.834 579.799L333.815 703.655L369.838 659.151L317.834 579.799ZM333.83 705.018L333.147 704.755L316.809 578.134L317.519 577.763L370.683 658.887L370.656 659.52L333.83 705.018Z" fill="#E84545" fill-opacity="0.05"/>
<path d="M213.84 354.871L275.202 431.002L310.364 356.084L213.84 354.871ZM275 432.135L212.597 354.712L212.889 353.896L311.05 355.129L311.394 355.847L275.636 432.037L275 432.135Z" fill="#E84545" fill-opacity="0.05"/>
<path d="M213.657 353.906L309.335 355.109L238.586 312.016L213.657 353.906ZM311.041 356.092L212.88 354.858L212.559 354.097L238.136 311.119L238.642 310.97L311.226 355.183L311.041 356.092Z" fill="#E84545" fill-opacity="0.05"/>
<path d="M353.728 453.379L254.945 503.764L364.71 498.946L353.728 453.379ZM252.804 504.821L252.634 503.897L353.831 452.281L354.372 452.591L365.622 499.271L365.252 499.885L252.804 504.821Z" fill="#E84545" fill-opacity="0.05"/>
<path d="M316.348 300.496L311.512 354.888L326.945 347.962L316.348 300.496ZM311.185 356.062L310.647 355.56L315.779 297.827L316.564 297.754L327.813 348.135L327.566 348.711L311.185 356.062Z" fill="#E84545" fill-opacity="0.05"/>
<path d="M257.233 579.768L254.268 645.758L316.144 578.564L257.233 579.768ZM254.085 647.255L253.416 646.871L256.453 579.268L256.847 578.812L317.197 577.579L317.473 578.418L254.085 647.255Z" fill="#E84545" fill-opacity="0.05"/>
<path d="M254.485 646.821L333.015 703.738L316.923 579.016L254.485 646.821ZM333.336 705.095L253.61 647.309L253.548 646.541L316.937 577.704L317.6 577.988L333.939 704.609L333.336 705.095Z" fill="#E84545" fill-opacity="0.05"/>
<path d="M253.256 505.539L257.228 578.806L316.22 577.6L253.256 505.539ZM256.859 579.775L256.453 579.326L252.39 504.371L253.066 503.991L317.48 577.713L317.211 578.542L256.859 579.775Z" fill="#E84545" fill-opacity="0.05"/>
<path d="M254.186 647.727L250.142 757.94L332.734 704.657L254.186 647.727ZM249.9 759.189L249.311 758.743L253.416 646.876L254.023 646.486L333.75 704.27L333.732 705.106L249.9 759.189Z" fill="#E84545" fill-opacity="0.05"/>
<path d="M328.227 348.073L388.408 372.185L395.459 279.319L328.227 348.073ZM388.634 373.29L327.299 348.716L327.167 347.893L395.687 277.823L396.345 278.233L389.16 372.877L388.634 373.29Z" fill="#E84545" fill-opacity="0.05"/>
<path d="M316.675 298.247L327.649 347.401L394.499 279.037L316.675 298.247ZM327.686 348.627L327.039 348.384L315.792 298.002L316.097 297.407L395.866 277.718L396.206 278.555L327.686 348.627Z" fill="#E84545" fill-opacity="0.05"/>
<path d="M253.755 504.778L317.151 577.336L364.424 499.922L253.755 504.778ZM316.929 578.41L252.514 504.689L252.776 503.858L365.223 498.923L365.56 499.689L317.527 578.346L316.929 578.41Z" fill="#E84545" fill-opacity="0.05"/>
<path d="M275.902 431.47L353.227 452.028L311.035 356.613L275.902 431.47ZM353.901 453.194L275.201 432.27L274.938 431.564L310.697 355.375L311.399 355.386L354.341 452.498L353.901 453.194Z" fill="#E84545" fill-opacity="0.05"/>
<path d="M311.613 355.87L352.389 448.083L327.168 348.89L311.613 355.87ZM353.634 452.95L310.692 355.837L310.905 355.161L327.286 347.809L327.809 348.12L354.371 452.583L353.634 452.95Z" fill="#E84545" fill-opacity="0.05"/>
<path d="M275.541 432.361L253.49 503.46L352.678 452.869L275.541 432.361ZM252.947 504.782L252.415 504.172L274.913 431.632L275.374 431.331L354.074 452.254L354.144 453.166L252.947 504.782Z" fill="#E84545" fill-opacity="0.05"/>
<path d="M294.111 162.207L297.133 238.187L372.394 205.646L294.111 162.207ZM296.895 239.313L296.359 238.884L293.279 161.461L293.847 161.001L373.617 205.264L373.585 206.154L296.895 239.313Z" fill="#E84545" fill-opacity="0.05"/>
<path d="M297.283 239.146L316.286 296.899L372.33 206.696L297.283 239.146ZM316.498 298.166L315.806 298.055L296.387 239.038L296.623 238.407L373.313 205.248L373.769 205.989L316.498 298.166Z" fill="#E84545" fill-opacity="0.05"/>
<path d="M297.09 162.8L373.108 204.982L375.024 182.691L297.09 162.8ZM373.281 206.139L293.511 161.875L293.763 160.967L375.542 181.839L375.858 182.359L373.847 205.751L373.281 206.139Z" fill="#E84545" fill-opacity="0.05"/>
<path d="M300.161 69.8139L294.141 160.525L392.762 86.7626L300.161 69.8139ZM293.891 161.846L293.28 161.4L299.397 69.2229L299.857 68.785L393.953 86.007L394.105 86.8906L293.891 161.846Z" fill="#E84545" fill-opacity="0.05"/>
<path d="M307.049 32.5318L393.254 85.5501L375.184 9.65225L307.049 32.5318ZM393.712 86.9111L305.773 32.8292L305.847 31.937L375.351 8.59637L375.845 8.92746L394.279 86.351L393.712 86.9111Z" fill="#E84545" fill-opacity="0.05"/>
<path d="M200.982 -10.9791L305.967 31.8964L373.291 9.28827L200.982 -10.9791ZM306.064 32.8628L305.827 32.8561L197.443 -11.4083L197.611 -12.3429L375.499 8.58087L375.567 9.52316L306.064 32.8628Z" fill="#E84545" fill-opacity="0.05"/>
<path d="M380.047 9.5409L444.976 23.268L479.357 9.5409H380.047ZM444.936 24.2373L375.39 9.53319L375.459 8.5784H481.832L481.959 9.51585L445.133 24.22L444.936 24.2373Z" fill="#E84545" fill-opacity="0.05"/>
<path d="M394.017 87.978L376.156 180.826L412.832 137.988L394.017 87.978ZM375.739 182.655L375.069 182.201L393.503 86.3735L394.258 86.284L413.677 137.899L413.592 138.443L375.739 182.655Z" fill="#E84545" fill-opacity="0.05"/>
<path d="M560.63 194.11L521.587 254.219L605.619 240.99L560.63 194.11ZM520.721 255.326L520.354 254.552L560.259 193.119L560.836 193.05L606.817 240.964L606.607 241.805L520.721 255.326Z" fill="#E84545" fill-opacity="0.05"/>
<path d="M365.867 499.67L417.23 591.614L439.375 471.839L365.867 499.67ZM417.086 593.083L364.905 499.672L365.116 498.946L439.795 470.67L440.307 471.233L417.809 592.919L417.086 593.083Z" fill="#E84545" fill-opacity="0.05"/>
<path d="M254.366 758.631L509.319 777.684L407.155 738.332L254.366 758.631ZM512.475 778.884L249.685 759.245L249.667 758.286L407.152 737.364L407.318 737.383L512.622 777.945L512.475 778.884Z" fill="#E84545" fill-opacity="0.05"/>
<path d="M300.271 68.8601L391.516 85.5605L306.244 33.1176L300.271 68.8601ZM393.833 86.958L299.736 69.736L299.403 69.1652L305.563 32.3044L306.137 31.9713L394.076 86.0542L393.833 86.958Z" fill="#E84545" fill-opacity="0.05"/>
<path d="M373.331 206.696L317.129 297.153L395.408 277.831L373.331 206.696ZM316.258 298.35L315.857 297.591L373.128 205.413L373.824 205.533L396.321 278.021L396.027 278.66L316.258 298.35Z" fill="#E84545" fill-opacity="0.05"/>
<path d="M992.32 368.509L951.264 532.273L1035.39 385.379L992.32 368.509ZM950.471 535.354L949.759 534.942L991.672 367.76L992.184 367.44L1036.15 384.664L1036.36 385.394L950.471 535.354Z" fill="#E84545" fill-opacity="0.05"/>
<path d="M333.572 705.21L251.722 758.014L405.484 737.585L333.572 705.21ZM249.754 759.243L249.521 758.341L333.353 704.258L333.683 704.232L407.336 737.391L407.24 738.32L249.754 759.243Z" fill="#E84545" fill-opacity="0.05"/>
<path d="M334.258 704.49L406.309 736.928L370.283 659.981L334.258 704.49ZM407.056 738.292L333.402 705.133L333.256 704.347L370.082 658.849L370.718 658.949L407.545 737.606L407.056 738.292Z" fill="#E84545" fill-opacity="0.05"/>
<path d="M371.151 658.823L484.805 676.981L417.438 593.529L371.151 658.823ZM485.842 678.118L370.317 659.662L370.064 658.872L417.114 592.502L417.706 592.479L486.182 677.304L485.842 678.118Z" fill="#E84545" fill-opacity="0.05"/>
<path d="M396.248 279.509L389.262 371.524L425.065 327.29L396.248 279.509ZM389.048 373.169L388.362 372.79L395.548 278.145L396.271 277.906L425.912 327.054L425.875 327.672L389.048 373.169Z" fill="#E84545" fill-opacity="0.05"/>
<path d="M317.932 577.684L416.598 592.209L365.223 500.242L317.932 577.684ZM417.371 593.292L317.156 578.539L316.881 577.776L364.914 499.12L365.57 499.136L417.751 592.547L417.371 593.292Z" fill="#E84545" fill-opacity="0.05"/>
<path d="M318.12 578.681L370.382 658.425L416.631 593.183L318.12 578.681ZM370.674 659.497L370.055 659.483L316.89 578.359L317.253 577.583L417.467 592.337L417.724 593.126L370.674 659.497Z" fill="#E84545" fill-opacity="0.05"/>
<path d="M374.051 206.265L395.97 276.89L418.85 212.226L374.051 206.265ZM396.315 278.377L395.572 278.357L373.074 205.869L373.493 205.222L419.473 211.341L419.797 212.008L396.315 278.377Z" fill="#E84545" fill-opacity="0.05"/>
<path d="M373.888 205.275L417.504 211.079L375.795 183.087L373.888 205.275ZM419.384 212.298L373.404 206.18L373.05 205.652L375.061 182.261L375.654 181.89L419.624 211.399L419.384 212.298Z" fill="#E84545" fill-opacity="0.05"/>
<path d="M376.124 182.205L418.954 210.95L412.997 139.138L376.124 182.205ZM419.233 212.239L375.265 182.73L375.181 181.965L413.034 137.753L413.711 138.049L419.827 211.771L419.233 212.239Z" fill="#E84545" fill-opacity="0.05"/>
<path d="M383.139 8.57852H481.744L510.171 -7.38648L383.139 8.57852ZM481.832 9.54102H375.459L375.417 8.58138L512.458 -8.64159L512.669 -7.72627L482.002 9.49576L481.832 9.54102Z" fill="#E84545" fill-opacity="0.05"/>
<path d="M354.551 453.334L365.507 498.797L438.24 471.258L354.551 453.334ZM365.357 499.863L364.852 499.537L353.603 452.857L354.058 452.25L439.986 470.655L440.036 471.587L365.357 499.863Z" fill="#E84545" fill-opacity="0.05"/>
<path d="M354.596 452.364L439.098 470.465L388.792 373.8L354.596 452.364ZM439.846 471.603L353.918 453.198L353.633 452.501L388.406 372.61L389.1 372.578L440.255 470.873L439.846 471.603Z" fill="#E84545" fill-opacity="0.05"/>
<path d="M376.02 9.66631L394.088 85.5546L444.188 24.0788L376.02 9.66631ZM394.18 86.8193L393.509 86.6153L375.075 9.19276L375.529 8.58543L445.075 23.2886L445.292 24.1L394.18 86.8193Z" fill="#E84545" fill-opacity="0.05"/>
<path d="M489.813 244.59L513.352 294.075L520.2 255.187L489.813 244.59ZM513.179 295.649L488.627 244.034L489.086 243.334L520.781 254.387L521.06 254.948L513.918 295.511L513.179 295.649Z" fill="#E84545" fill-opacity="0.05"/>
<path d="M389.591 373.52L440.01 470.402L507.503 401.389L389.591 373.52ZM440.176 471.495L439.577 471.384L388.422 373.089L388.838 372.361L508.472 400.637L508.654 401.475L440.176 471.495Z" fill="#E84545" fill-opacity="0.05"/>
<path d="M394.524 86.9896L413.496 137.417L481.441 90.5557L394.524 86.9896ZM413.512 138.515L412.948 138.296L393.529 86.6807L393.907 86.0021L482.873 89.6519L483.059 90.5499L413.512 138.515Z" fill="#E84545" fill-opacity="0.05"/>
<path d="M394.816 86.039L482.082 89.6185L444.951 24.5179L394.816 86.039ZM482.846 90.6128L393.88 86.9639L393.607 86.1458L444.72 23.4264L445.336 23.4909L483.19 89.8601L482.846 90.6128Z" fill="#E84545" fill-opacity="0.05"/>
<path d="M371.112 659.789L407.338 737.163L484.754 677.944L371.112 659.789ZM407.411 738.248L406.848 738.078L370.021 659.42L370.422 658.707L485.948 677.163L486.11 678.046L407.411 738.248Z" fill="#E84545" fill-opacity="0.05"/>
<path d="M413.932 138.225L488.519 242.421L482.491 90.9419L413.932 138.225ZM488.671 244.109L413.009 138.411L413.113 137.681L482.66 89.7157L483.26 90.1094L489.375 243.772L488.671 244.109Z" fill="#E84545" fill-opacity="0.05"/>
<path d="M418.334 593.258L485.696 676.703L505.851 589.617L418.334 593.258ZM485.607 677.977L417.131 593.15L417.405 592.333L506.369 588.632L506.769 589.242L486.281 677.769L485.607 677.977Z" fill="#E84545" fill-opacity="0.05"/>
<path d="M419.646 212.434L396.652 277.425L487.746 243.746L419.646 212.434ZM396.064 278.648L395.578 278.001L419.06 211.631L419.572 211.37L489.118 243.346L489.093 244.255L396.064 278.648Z" fill="#E84545" fill-opacity="0.05"/>
<path d="M396.599 278.451L425.623 326.575L487.691 244.775L396.599 278.451ZM425.884 327.66L425.264 327.619L395.622 278.472L395.829 277.729L488.857 243.336L489.271 244.12L425.884 327.66Z" fill="#E84545" fill-opacity="0.05"/>
<path d="M419.802 211.476L487.637 242.666L413.837 139.568L419.802 211.476ZM488.831 244.245L419.285 212.269L419.03 211.868L412.914 138.146L413.616 137.784L489.278 243.482L488.831 244.245Z" fill="#E84545" fill-opacity="0.05"/>
<path d="M389.563 372.533L506.73 400.225L425.631 327.974L389.563 372.533ZM508.317 401.581L388.683 373.306L388.474 372.498L425.301 327.001L425.826 326.95L508.632 400.722L508.317 401.581Z" fill="#E84545" fill-opacity="0.05"/>
<path d="M440.105 472.324L417.922 592.312L505.645 588.662L440.105 472.324ZM417.432 593.295L417.027 592.71L439.525 471.024L440.247 470.859L506.714 588.843L506.396 589.595L417.432 593.295Z" fill="#E84545" fill-opacity="0.05"/>
<path d="M950.784 534.813L996.917 551.649L1034.99 387.771L950.784 534.813ZM997.069 552.713L950.023 535.542L949.807 534.809L1035.7 384.849L1036.41 385.251L997.573 552.382L997.069 552.713Z" fill="#E84545" fill-opacity="0.05"/>
<path d="M957.014 101.633L976.793 132.448L1009.32 95.6792L957.014 101.633ZM977.017 133.512L976.424 133.455L955.94 101.53L956.221 100.758L1010.41 94.5897L1010.72 95.4184L977.017 133.512Z" fill="#E84545" fill-opacity="0.05"/>
<path d="M482.237 9.36407L483.227 87.5027L511.795 -7.2352L482.237 9.36407ZM483.237 90.2969L482.459 90.14L481.433 9.06667L481.664 8.62297L512.332 -8.59807L512.877 -7.99844L483.237 90.2969Z" fill="#E84545" fill-opacity="0.05"/>
<path d="M206.685 -11.276L375.458 8.57559L505.477 -7.76379L206.685 -11.276ZM375.42 9.53809L197.532 -11.3847L197.575 -12.3453L512.504 -8.64353L512.542 -7.6839L375.501 9.53809H375.42Z" fill="#E84545" fill-opacity="0.05"/>
<path d="M408.131 737.698L511.883 777.661L485.672 678.383L408.131 737.698ZM512.378 778.862L407.074 738.302L406.98 737.436L485.68 677.235L486.277 677.496L512.882 778.258L512.378 778.862Z" fill="#E84545" fill-opacity="0.05"/>
<path d="M483.306 91.293L489.323 242.479L543.653 159.02L483.306 91.293ZM489.291 244.092L488.576 243.818L482.46 90.1553L483.133 89.7809L544.468 158.618L544.51 159.267L489.291 244.092Z" fill="#E84545" fill-opacity="0.05"/>
<path d="M488.9 244.608L426.862 326.371L512.93 295.124L488.9 244.608ZM425.704 327.796L425.292 327.012L488.679 243.471L489.322 243.556L513.874 295.171L513.643 295.871L425.704 327.796Z" fill="#E84545" fill-opacity="0.05"/>
<path d="M426.467 327.519L508.037 400.192L513.093 296.071L426.467 327.519ZM508.156 401.495L425.349 327.722L425.472 326.875L513.411 294.95L513.926 295.438L508.794 401.137L508.156 401.495Z" fill="#E84545" fill-opacity="0.05"/>
<path d="M616.404 456.417L675.789 516.91L688.886 378.965L616.404 456.417ZM675.842 518.227L615.535 456.793L615.527 456.065L689.137 377.409L689.801 377.824L676.5 517.914L675.842 518.227Z" fill="#E84545" fill-opacity="0.05"/>
<path d="M440.824 471.882L506.282 588.074L534.462 498.513L440.824 471.882ZM506.051 589.383L439.584 471.399L440.008 470.66L535.09 497.703L535.373 498.341L506.758 589.283L506.051 589.383Z" fill="#E84545" fill-opacity="0.05"/>
<path d="M440.778 470.88L534.394 497.505L508.2 401.939L440.778 470.88ZM534.905 498.64L439.824 471.597L439.656 470.763L508.134 400.743L508.775 400.958L535.378 498.021L534.905 498.64Z" fill="#E84545" fill-opacity="0.05"/>
<path d="M513.894 296.121L508.846 400.074L582.292 331.16L513.894 296.121ZM508.641 401.488L507.995 401.08L513.127 295.382L513.685 294.967L583.23 330.594L583.32 331.416L508.641 401.488Z" fill="#E84545" fill-opacity="0.05"/>
<path d="M585.908 670.551L699.123 721.115L691.119 660.932L585.908 670.551ZM699.487 722.304L583.918 670.688L584.026 669.758L691.425 659.939L691.852 660.342L700.022 721.778L699.487 722.304Z" fill="#E84545" fill-opacity="0.05"/>
<path d="M486.64 678.87L512.697 777.557L552.745 735.415L486.64 678.87ZM512.764 778.767L512.118 778.55L485.514 677.787L486.127 677.25L553.623 734.983L553.654 735.737L512.764 778.767Z" fill="#E84545" fill-opacity="0.05"/>
<path d="M487.048 678.036L553.26 734.673L583.345 670.773L487.048 678.036ZM553.158 735.767L485.663 678.032L485.871 677.16L584.032 669.758L584.406 670.475L553.739 735.612L553.158 735.767Z" fill="#E84545" fill-opacity="0.05"/>
<path d="M584.237 670.832L554.108 734.825L697.778 721.541L584.237 670.832ZM553.421 735.854L553.041 735.137L583.708 670.001L584.195 669.786L699.766 721.403L699.657 722.333L553.421 735.854Z" fill="#E84545" fill-opacity="0.05"/>
<path d="M489.98 243.645L520.52 254.295L558.971 195.099L489.98 243.645ZM520.557 255.311L488.863 244.257L488.772 243.379L560.371 192.999L560.89 193.711L520.985 255.145L520.557 255.311Z" fill="#E84545" fill-opacity="0.05"/>
<path d="M544.143 159.831L490.583 242.106L560.03 193.24L544.143 159.831ZM489.177 244.211L488.66 243.499L543.88 158.674L544.543 158.732L560.923 193.176L560.777 193.83L489.177 244.211Z" fill="#E84545" fill-opacity="0.05"/>
<path d="M513.986 295.123L581.366 329.641L520.906 255.825L513.986 295.123ZM582.916 331.48L513.369 295.853L513.135 295.311L520.277 254.749L520.954 254.511L583.358 330.7L582.916 331.48Z" fill="#E84545" fill-opacity="0.05"/>
<path d="M961.875 196.188L973.823 254.811L1008.65 183.034L961.875 196.188ZM974.015 256.325L973.278 256.197L961.002 195.946L961.298 195.362L1009.38 181.841L1009.81 182.552L974.015 256.325Z" fill="#E84545" fill-opacity="0.05"/>
<path d="M506.599 589.976L486.431 677.118L583.056 669.83L506.599 589.976ZM485.92 678.121L485.509 677.511L505.997 588.984L506.645 588.75L584.32 669.875L584.082 670.718L485.92 678.121Z" fill="#E84545" fill-opacity="0.05"/>
<path d="M613.192 70.3213L639.738 93.9671L628.913 18.2809L613.192 70.3213ZM640.063 95.4551L612.476 70.8815L612.338 70.33L628.676 16.2461L629.447 16.3299L640.697 94.9873L640.063 95.4551Z" fill="#E84545" fill-opacity="0.05"/>
<path d="M613.391 71.6959L628.066 138.855L639.832 95.2492L613.391 71.6959ZM628.407 140.714L627.639 140.688L612.327 70.6169L612.953 70.1077L640.541 94.6813L640.683 95.2165L628.407 140.714Z" fill="#E84545" fill-opacity="0.05"/>
<path d="M558.782 81.1319L544.715 158.367L627.03 140.295L558.782 81.1319ZM544.267 159.443L543.804 158.867L558.13 80.2108L558.757 79.923L628.261 140.175L628.098 141.038L544.267 159.443Z" fill="#E84545" fill-opacity="0.05"/>
<path d="M513.212 -7.70009L558.524 79.41L605.816 -10.1294L513.212 -7.70009ZM558.859 80.5718L558.182 80.5689L512.16 -7.90701L512.491 -8.64332L606.546 -11.1112L606.893 -10.372L558.859 80.5718Z" fill="#E84545" fill-opacity="0.05"/>
<path d="M561.238 193.469L606.329 240.454L627.384 141.643L561.238 193.469ZM606.293 241.691L560.312 193.778L560.356 193.011L627.807 140.162L628.414 140.685L606.943 241.447L606.293 241.691Z" fill="#E84545" fill-opacity="0.05"/>
<path d="M522.053 255.116L607.169 304.456L606.163 241.874L522.053 255.116ZM607.409 305.663L520.495 255.282L520.617 254.371L606.504 240.851L606.955 241.318L607.982 305.22L607.409 305.663Z" fill="#E84545" fill-opacity="0.05"/>
<path d="M522.572 256.486L583.093 330.376L606.863 305.347L522.572 256.486ZM583.336 331.399L582.787 331.375L520.384 255.187L520.843 254.416L607.755 304.797L607.845 305.592L583.336 331.399Z" fill="#E84545" fill-opacity="0.05"/>
<path d="M509.174 400.987L615.15 455.57L582.864 331.845L509.174 400.987ZM615.636 456.868L508.236 401.551L508.147 400.729L582.826 330.658L583.455 330.894L616.176 456.282L615.636 456.868Z" fill="#E84545" fill-opacity="0.05"/>
<path d="M606.263 -9.17914L559.329 79.6807L612.28 70.0866L606.263 -9.17914ZM558.581 80.7896L558.184 80.0552L606.217 -10.8876L606.954 -10.6739L613.113 70.4504L612.774 70.9701L558.581 80.7896Z" fill="#E84545" fill-opacity="0.05"/>
<path d="M509.052 401.972L535.241 497.521L614.779 456.426L509.052 401.972ZM535.156 498.612L534.618 498.321L508.014 401.259L508.552 400.665L615.952 455.982V456.867L535.156 498.612Z" fill="#E84545" fill-opacity="0.05"/>
<path d="M608.38 305.34L689.011 376.824L690.023 262.936L608.38 305.34ZM689.165 378.156L607.344 305.618L607.423 304.788L690.271 261.759L690.83 262.206L689.803 377.774L689.165 378.156Z" fill="#E84545" fill-opacity="0.05"/>
<path d="M544.822 159.32L560.711 192.733L626.14 141.468L544.822 159.32ZM560.794 193.817L560.227 193.653L543.848 159.209L544.122 158.497L627.954 140.092L628.245 140.968L560.794 193.817Z" fill="#E84545" fill-opacity="0.05"/>
<path d="M559.553 80.613L627.355 139.39L612.418 71.0342L559.553 80.613ZM627.792 140.955L558.288 80.7035L558.462 79.8373L612.655 70.0179L613.102 70.3721L628.413 140.443L627.792 140.955Z" fill="#E84545" fill-opacity="0.05"/>
<path d="M607.054 -9.34956L612.949 68.304L628.59 16.5349L607.054 -9.34956ZM613.09 70.6592L612.315 70.5379L606.156 -10.5864L606.839 -10.9704L629.336 16.071L629.429 16.5754L613.09 70.6592Z" fill="#E84545" fill-opacity="0.05"/>
<path d="M628.514 140.32L706.172 186.965L640.465 96.0265L628.514 140.32ZM707.617 188.91L627.847 140.995L627.646 140.416L639.921 94.9196L640.605 94.7522L708.099 188.164L707.617 188.91Z" fill="#E84545" fill-opacity="0.05"/>
<path d="M536.026 498.163L649.779 555.059L615.582 457.058L536.026 498.163ZM650.371 556.398L534.844 498.615L534.84 497.729L615.636 455.983L616.163 456.239L650.894 555.768L650.371 556.398Z" fill="#E84545" fill-opacity="0.05"/>
<path d="M535.226 498.806L507.011 588.478L649.14 555.783L535.226 498.806ZM506.459 589.586L506.009 588.943L534.623 498L535.152 497.726L650.679 555.509L650.599 556.427L506.459 589.586Z" fill="#E84545" fill-opacity="0.05"/>
<path d="M507.268 589.399L583.983 669.524L649.631 556.649L507.268 589.399ZM583.793 670.601L506.12 589.476L506.307 588.64L650.45 555.481L650.853 556.23L584.385 670.513L583.793 670.601Z" fill="#E84545" fill-opacity="0.05"/>
<path d="M606.965 241.922L607.97 304.504L689.107 262.363L606.965 241.922ZM607.741 305.672L607.181 305.24L606.154 241.337L606.636 240.856L690.511 261.729L690.589 262.642L607.741 305.672Z" fill="#E84545" fill-opacity="0.05"/>
<path d="M1009.87 182.313L1035.63 378.97V-2.38034L1009.87 182.313ZM1035.63 385.196L1009.07 182.385V182.231L1035.63 -8.24194L1036.43 -8.16205V385.121L1035.63 385.196Z" fill="#E84545" fill-opacity="0.05"/>
<path d="M616.809 458.091L650.634 555.025L675.545 517.922L616.809 458.091ZM650.836 556.257L650.155 556.14L615.425 456.611L616.053 456.058L676.361 517.491L676.413 518.162L650.836 556.257Z" fill="#E84545" fill-opacity="0.05"/>
<path d="M583.845 330.864L686.92 376.164L607.604 305.847L583.845 330.864ZM689.265 378.221L582.935 331.49L582.81 330.676L607.318 304.868L607.82 304.843L689.641 377.382L689.265 378.221Z" fill="#E84545" fill-opacity="0.05"/>
<path d="M583.698 331.825L615.991 455.57L688.636 377.944L583.698 331.825ZM616.06 456.785L615.412 456.57L582.69 331.182L583.211 330.585L689.541 377.316L689.669 378.128L616.06 456.785Z" fill="#E84545" fill-opacity="0.05"/>
<path d="M699.64 722.345L523.308 775.634L737.203 730.483L699.64 722.345ZM512.569 778.878L512.402 777.936L699.529 721.387L699.698 721.38L739.561 730.016L739.559 730.965L512.569 778.878Z" fill="#E84545" fill-opacity="0.05"/>
<path d="M906.468 7.18301L888.555 98.1614L944.289 19.1498L906.468 7.18301ZM888.082 100.314L887.386 99.8919L905.78 6.48036L906.276 6.12619L945.106 18.4134L945.314 19.1902L888.082 100.314Z" fill="#E84545" fill-opacity="0.05"/>
<path d="M607.539 -10.1283L629.182 15.8852L720.691 -7.75381L607.539 -10.1283ZM629.137 16.8813L628.77 16.7514L606.272 -10.29L606.562 -11.111L724.184 -8.64318L724.261 -7.69225L629.137 16.8813Z" fill="#E84545" fill-opacity="0.05"/>
<path d="M650.457 556.911L584.87 669.68L690.846 659.992L650.457 556.911ZM584.087 670.718L583.729 669.962L650.196 555.678L650.887 555.748L691.819 660.214L691.487 660.899L584.087 670.718Z" fill="#E84545" fill-opacity="0.05"/>
<path d="M650.993 556.022L690.731 657.441L675.825 519.038L650.993 556.022ZM691.093 660.624L650.162 556.159L650.213 555.651L675.79 517.557L676.499 517.797L691.853 660.357L691.093 660.624Z" fill="#E84545" fill-opacity="0.05"/>
<path d="M957.11 -2.96763L1002.23 9.73639L1033.95 -7.55684L957.11 -2.96763ZM1002.19 10.7104L954.155 -2.80981L954.227 -3.75976L1036.01 -8.64351L1036.2 -7.72434L1002.44 10.6797L1002.19 10.7104Z" fill="#E84545" fill-opacity="0.05"/>
<path d="M553.554 735.842L514.015 777.449L694.96 722.768L553.554 735.842ZM512.598 778.871L512.236 778.042L553.127 735.013L553.36 734.895L699.597 721.374L699.725 722.321L512.598 778.871Z" fill="#E84545" fill-opacity="0.05"/>
<path d="M607.874 241.164L690.146 261.638L707.18 189.325L607.874 241.164ZM690.349 262.672L606.474 241.799L606.396 240.887L707.637 188.038L708.181 188.61L690.815 262.331L690.349 262.672Z" fill="#E84545" fill-opacity="0.05"/>
<path d="M631.566 16.2537L741.839 30.5872L723.972 -7.61726L631.566 16.2537ZM742.526 31.644L629.009 16.8889L628.968 15.9399L724.092 -8.63273L724.525 -8.39882L742.917 30.9299L742.526 31.644Z" fill="#E84545" fill-opacity="0.05"/>
<path d="M628.292 141.262L607.147 240.494L706.85 188.449L628.292 141.262ZM606.715 241.77L606.168 241.208L627.639 140.446L628.205 140.134L707.975 188.049L707.956 188.921L606.715 241.77Z" fill="#E84545" fill-opacity="0.05"/>
<path d="M894.737 683.3L840.124 733.967L899.549 698.279L894.737 683.3ZM836.8 737.038L836.376 736.227L894.673 682.144L895.297 682.351L900.43 698.341L900.23 698.944L836.8 737.038Z" fill="#E84545" fill-opacity="0.05"/>
<path d="M699.977 721.441L738.487 729.784L692.085 662.092L699.977 721.441ZM739.419 730.964L699.556 722.327L699.232 721.93L691.061 660.495L691.765 660.112L739.799 730.183L739.419 730.964Z" fill="#E84545" fill-opacity="0.05"/>
<path d="M742.239 31.9146L641.971 94.5685L748.235 93.3577L742.239 31.9146ZM640.306 95.5493L640.117 94.6407L742.384 30.7384L742.967 31.11L749.083 93.7783L748.689 94.3154L640.306 95.5493Z" fill="#E84545" fill-opacity="0.05"/>
<path d="M802.239 244.369L795.196 315.423L877.408 262.41L802.239 244.369ZM794.897 316.708L794.311 316.226L801.494 243.738L801.975 243.324L878.658 261.729L878.77 262.625L794.897 316.708Z" fill="#E84545" fill-opacity="0.05"/>
<path d="M743.592 208.063L794.453 314.782L801.462 244.07L743.592 208.063ZM794.36 316.523L742.222 207.123L742.753 206.456L802.078 243.368L802.287 243.852L795.104 316.34L794.36 316.523Z" fill="#E84545" fill-opacity="0.05"/>
<path d="M629.537 16.958L640.604 94.3373L741.209 31.4734L629.537 16.958ZM640.487 95.4951L639.908 95.1496L628.658 16.4921L629.096 15.932L742.612 30.6871L742.754 31.5928L640.487 95.4951Z" fill="#E84545" fill-opacity="0.05"/>
<path d="M708.056 189.143L691.187 260.757L741.835 207.021L708.056 189.143ZM690.695 262.562L690.045 262.07L707.411 188.348L707.958 188.039L742.731 206.443L742.835 207.245L690.695 262.562Z" fill="#E84545" fill-opacity="0.05"/>
<path d="M677.263 518.13L782.081 593.238L788.153 497.506L677.263 518.13ZM782.227 594.462L675.897 518.272L676.042 517.383L788.53 496.461L788.99 496.973L782.831 594.086L782.227 594.462Z" fill="#E84545" fill-opacity="0.05"/>
<path d="M689.714 378.744L676.628 516.56L744.037 436.754L689.714 378.744ZM676.382 518.202L675.704 517.805L689.005 377.714L689.669 377.409L744.888 436.376L744.904 437.08L676.382 518.202Z" fill="#E84545" fill-opacity="0.05"/>
<path d="M743.401 206.859L800.885 242.628L774.112 185.438L743.401 206.859ZM801.71 244.223L742.385 207.311L742.368 206.467L774.061 184.361L774.611 184.542L802.239 243.559L801.71 244.223Z" fill="#E84545" fill-opacity="0.05"/>
<path d="M748.607 95.0594L708.472 187.96L773.712 184.326L748.607 95.0594ZM707.814 188.96L707.44 188.257L748.33 93.6118L749.064 93.6802L774.641 184.624L774.281 185.258L707.814 188.96Z" fill="#E84545" fill-opacity="0.05"/>
<path d="M641.174 95.5398L707.712 187.629L748.023 94.3232L641.174 95.5398ZM707.494 188.794L640 95.3838L640.299 94.5869L748.681 93.353L749.041 94.0556L708.151 188.701L707.494 188.794Z" fill="#E84545" fill-opacity="0.05"/>
<path d="M744.602 437.437L677.268 517.155L787.809 496.595L744.602 437.437ZM676.163 518.334L675.821 517.516L744.343 436.393L744.924 436.418L788.891 496.619L788.652 497.412L676.163 518.334Z" fill="#E84545" fill-opacity="0.05"/>
<path d="M709.519 188.864L742.544 206.344L772.646 185.349L709.519 188.864ZM742.408 207.323L707.636 188.919L707.778 187.998L774.244 184.296L774.464 185.193L742.771 207.3L742.408 207.323Z" fill="#E84545" fill-opacity="0.05"/>
<path d="M745.62 731.358L880.563 761.237L836.528 737.083L745.62 731.358ZM883.598 762.888L739.417 730.964L739.511 730.009L836.649 736.128L836.793 736.17L883.839 761.976L883.598 762.888Z" fill="#E84545" fill-opacity="0.05"/>
<path d="M676.605 518.779L691.774 659.623L781.655 594.052L676.605 518.779ZM691.664 660.83L691.058 660.481L675.705 517.921L676.307 517.445L782.636 593.635L782.64 594.46L691.664 660.83Z" fill="#E84545" fill-opacity="0.05"/>
<path d="M692.059 660.542L739.36 729.543L781.646 595.185L692.059 660.542ZM739.181 730.796L691.147 660.726L691.248 660.008L782.223 593.637L782.806 594.219L739.865 730.66L739.181 730.796Z" fill="#E84545" fill-opacity="0.05"/>
<path d="M742.999 31.4383L748.948 92.3982L797.711 -3.21751L742.999 31.4383ZM749.027 94.0854L748.287 93.89L742.172 31.2217L742.382 30.7405L798.628 -4.88651L799.156 -4.20891L749.027 94.0854Z" fill="#E84545" fill-opacity="0.05"/>
<path d="M690.825 262.929L689.811 376.996L793.748 316.309L690.825 262.929ZM689.579 378.202L689.003 377.764L690.03 262.195L690.589 261.758L794.866 315.841L794.883 316.716L689.579 378.202Z" fill="#E84545" fill-opacity="0.05"/>
<path d="M691.168 262.059L793.763 315.269L742.466 207.635L691.168 262.059ZM794.549 316.725L690.272 262.642L690.165 261.839L742.305 206.523L742.916 206.644L795.055 316.045L794.549 316.725Z" fill="#E84545" fill-opacity="0.05"/>
<path d="M794.32 317.045L691.179 377.266L795.326 376.058L794.32 317.045ZM689.407 378.25L689.228 377.336L794.532 315.85L795.108 316.274L796.134 376.525L795.738 377.016L689.407 378.25Z" fill="#E84545" fill-opacity="0.05"/>
<path d="M690.445 378.237L744.609 436.078L794.744 377.028L690.445 378.237ZM744.356 437.096L689.137 378.129L689.399 377.287L795.73 376.053L796.014 376.878L744.902 437.081L744.356 437.096Z" fill="#E84545" fill-opacity="0.05"/>
<path d="M724.878 -7.64594L742.727 30.522L797.313 -4.05386L724.878 -7.64594ZM742.756 31.5923L742.221 31.4027L723.828 -7.92599L724.193 -8.64308L798.83 -4.94131L799.001 -4.03464L742.756 31.5923Z" fill="#E84545" fill-opacity="0.05"/>
<path d="M747.447 730.509L835.335 736.045L824.268 726.043L747.447 730.509ZM836.6 737.088L739.469 730.969L739.47 730.009L824.372 725.074L824.629 725.17L836.865 736.222L836.6 737.088Z" fill="#E84545" fill-opacity="0.05"/>
<path d="M783.058 594.667L824.413 724.277L864.716 611.642L783.058 594.667ZM824.757 725.745L824.02 725.727L782.058 594.221L782.5 593.574L865.348 610.797L865.653 611.461L824.757 725.745Z" fill="#E84545" fill-opacity="0.05"/>
<path d="M788.85 499.192L782.971 591.883L803.464 547.328L788.85 499.192ZM782.782 594.282L782.032 594.012L788.191 496.9L788.967 496.771L804.281 547.204L804.257 547.603L782.782 594.282Z" fill="#E84545" fill-opacity="0.05"/>
<path d="M745.347 437L788.416 495.968L808.445 416.554L745.347 437ZM788.289 497.254L744.321 437.054L744.518 436.272L808.933 415.399L809.422 416.003L788.974 497.076L788.289 497.254Z" fill="#E84545" fill-opacity="0.05"/>
<path d="M795.588 377.381L745.996 435.793L808.492 415.54L795.588 377.381ZM744.726 437.201L744.343 436.393L795.454 376.191L796.104 376.354L809.405 415.682L809.141 416.327L744.726 437.201Z" fill="#E84545" fill-opacity="0.05"/>
<path d="M774.98 185.328L801.743 242.496L812.601 188.915L774.98 185.328ZM801.543 244.031L773.914 185.014L774.294 184.298L813.13 187.999L813.49 188.593L802.279 243.909L801.543 244.031Z" fill="#E84545" fill-opacity="0.05"/>
<path d="M774.558 184.324L812.193 187.91L749.77 96.1874L774.558 184.324ZM813.066 188.959L774.232 185.257L773.884 184.932L748.307 93.9881L748.995 93.53L813.41 188.175L813.066 188.959Z" fill="#E84545" fill-opacity="0.05"/>
<path d="M798.899 -3.70655L749.661 92.8408L844.103 46.9903L798.899 -3.70655ZM748.835 94.2798L748.344 93.5829L798.472 -4.71238L799.087 -4.81248L845.112 46.8026L844.984 47.6005L748.835 94.2798Z" fill="#E84545" fill-opacity="0.05"/>
<path d="M782.434 595.401L740.08 729.973L823.82 725.107L782.434 595.401ZM739.509 730.97L739.115 730.32L782.057 593.879L782.806 593.877L824.765 725.383L824.413 726.035L739.509 730.97Z" fill="#E84545" fill-opacity="0.05"/>
<path d="M850.999 80.2021L813.859 187.533L882.093 150.16L850.999 80.2021ZM813.266 188.917L812.729 188.294L850.582 78.8951L851.303 78.8527L882.998 150.158L882.814 150.823L813.266 188.917Z" fill="#E84545" fill-opacity="0.05"/>
<path d="M799.934 -3.86272L844.897 46.5646L904.819 6.93556L799.934 -3.86272ZM845.033 47.5752L844.56 47.5059L798.541 -4.10912L798.849 -4.94069L906.204 6.11264L906.365 7.01353L845.033 47.5752Z" fill="#E84545" fill-opacity="0.05"/>
<path d="M739.488 730.978L518.275 777.673L880.003 762.091L739.488 730.978ZM512.515 778.885L512.432 777.929L739.42 730.016H739.563L883.743 761.941L883.687 762.896L512.515 778.885Z" fill="#E84545" fill-opacity="0.05"/>
<path d="M844.552 47.8112L751.627 92.9245L850.462 78.6661L844.552 47.8112ZM748.733 94.3115L748.535 93.3875L844.688 46.7082L845.225 47.046L851.343 78.9722L850.998 79.5583L748.733 94.3115Z" fill="#E84545" fill-opacity="0.05"/>
<path d="M837.553 736.588L883.422 761.749L899.398 699.447L837.553 736.588ZM883.502 762.853L836.456 737.046L836.448 736.178L899.878 698.083L900.439 698.656L884.055 762.557L883.502 762.853Z" fill="#E84545" fill-opacity="0.05"/>
<path d="M749.456 94.2075L812.985 187.553L850.318 79.6555L749.456 94.2075ZM812.793 188.784L748.376 94.1382L748.638 93.3557L850.902 78.6015L851.319 79.2647L813.466 188.663L812.793 188.784Z" fill="#E84545" fill-opacity="0.05"/>
<path d="M783.054 593.689L863.931 610.502L804.017 548.122L783.054 593.689ZM865.212 611.746L782.364 594.524L782.081 593.815L803.552 547.136L804.169 547.006L865.541 610.907L865.212 611.746Z" fill="#E84545" fill-opacity="0.05"/>
<path d="M946.412 611.849L941.495 731.765L972.117 617.759L946.412 611.849ZM941.327 735.522L940.542 735.351L945.635 611.248L946.107 610.798L972.717 616.916L973.022 617.537L941.327 735.522Z" fill="#E84545" fill-opacity="0.05"/>
<path d="M845.489 47.2705L887.554 99.0414L905.571 7.53658L845.489 47.2705ZM887.49 100.34L844.552 47.49L844.64 46.7325L905.98 6.1708L906.556 6.70304L888.17 100.115L887.49 100.34Z" fill="#E84545" fill-opacity="0.05"/>
<path d="M908.062 6.69221L944.794 18.3134L953.531 -2.64404L908.062 6.69221ZM944.906 19.3442L906.068 7.057L906.1 6.11757L954.179 -3.75284L954.604 -3.06274L945.363 19.094L944.906 19.3442Z" fill="#E84545" fill-opacity="0.05"/>
<path d="M825.149 725.634L836.625 736.002L891.31 685.268L825.149 725.634ZM836.384 736.992L824.148 725.94L824.212 725.125L894.737 682.095L895.17 682.905L836.873 736.988L836.384 736.992Z" fill="#E84545" fill-opacity="0.05"/>
<path d="M796.432 377.322L809.302 415.363L879.506 410.589L796.432 377.322ZM809.062 416.344L808.669 416.044L795.363 376.717L795.861 376.079L881.748 410.471L881.644 411.408L809.062 416.344Z" fill="#E84545" fill-opacity="0.05"/>
<path d="M796.128 376.185L879.938 409.748L795.126 317.389L796.128 376.185ZM881.492 411.384L795.607 376.992L795.333 376.544L794.307 316.293L794.976 315.926L881.892 410.571L881.492 411.384Z" fill="#E84545" fill-opacity="0.05"/>
<path d="M795.397 316.385L881.196 409.817L878.201 262.994L795.397 316.385ZM881.348 411.284L794.438 316.64L794.519 315.86L878.393 261.777L878.986 262.189L882.021 410.915L881.348 411.284Z" fill="#E84545" fill-opacity="0.05"/>
<path d="M882.093 411.023L908.078 483.04L930.06 348.602L882.093 411.023ZM907.854 484.842L881.252 411.119L881.324 410.601L930.428 346.7L931.117 347.119L908.615 484.743L907.854 484.842Z" fill="#E84545" fill-opacity="0.05"/>
<path d="M851.879 80.1366L882.405 148.816L887.346 100.289L851.879 80.1366ZM882.293 150.612L850.598 79.3069L851.126 78.6447L887.946 99.5675L888.178 100.061L883.045 150.443L882.293 150.612Z" fill="#E84545" fill-opacity="0.05"/>
<path d="M954.459 -2.72427L945.698 18.289L1000.02 10.0982L954.459 -2.72427ZM945.058 19.3555L944.649 18.6625L953.89 -3.49427L954.339 -3.7474L1002.37 9.77281L1002.33 10.719L945.058 19.3555Z" fill="#E84545" fill-opacity="0.05"/>
<path d="M804.721 243.983L878.297 261.641L884.167 235.698L804.721 243.983ZM878.505 262.672L801.814 244.267L801.862 243.316L884.663 234.68L885.088 235.285L878.97 262.326L878.505 262.672Z" fill="#E84545" fill-opacity="0.05"/>
<path d="M813.994 188.516L884.279 234.337L882.261 151.123L813.994 188.516ZM884.511 235.582L812.905 188.902L812.937 188.041L882.477 149.947L883.046 150.371L885.096 235.145L884.511 235.582Z" fill="#E84545" fill-opacity="0.05"/>
<path d="M813.361 189.2L802.415 243.258L883.334 234.818L813.361 189.2ZM801.926 244.275L801.502 243.682L812.713 188.365L813.289 188.056L884.887 234.736L884.735 235.638L801.926 244.275Z" fill="#E84545" fill-opacity="0.05"/>
<path d="M851.295 78.7442L885.937 98.4235L845.545 48.7171L851.295 78.7442ZM887.61 100.439L850.782 79.5152L850.566 79.1879L844.448 47.2628L845.121 46.8181L888.067 99.667L887.61 100.439Z" fill="#E84545" fill-opacity="0.05"/>
<path d="M865.309 612.414L825.198 724.525L894.385 682.312L865.309 612.414ZM824.573 725.985L824.021 725.365L864.916 611.082L865.637 611.056L895.282 682.31L895.106 682.954L824.573 725.985Z" fill="#E84545" fill-opacity="0.05"/>
<path d="M810.398 416.253L907.373 483.505L881.364 411.427L810.398 416.253ZM908.022 485.066L808.837 416.279L809.013 415.383L881.596 410.448L881.988 410.735L908.59 484.458L908.022 485.066Z" fill="#E84545" fill-opacity="0.05"/>
<path d="M809.269 416.583L789.145 496.397L906.917 484.301L809.269 416.583ZM788.624 497.416L788.207 496.796L808.653 415.723L809.237 415.447L908.422 484.234L908.254 485.129L788.624 497.416Z" fill="#E84545" fill-opacity="0.05"/>
<path d="M804.617 547.477L865.124 610.467L907.453 485.652L804.617 547.477ZM865.02 611.635L803.64 547.732L803.728 546.938L908.046 484.219L908.59 484.831L865.652 611.453L865.02 611.635Z" fill="#E84545" fill-opacity="0.05"/>
<path d="M789.146 497.362L804.129 546.697L906.172 485.343L789.146 497.362ZM804.081 547.8L803.528 547.534L788.215 497.102L788.556 496.457L908.19 484.17L908.406 485.08L804.081 547.8Z" fill="#E84545" fill-opacity="0.05"/>
<path d="M808.925 -3.90314L906.156 6.10686L949.694 -2.83189L808.925 -3.90314ZM906.14 7.07129L798.779 -3.98205L798.816 -4.94262L954.251 -3.7597L954.315 -2.80491L906.14 7.07129Z" fill="#E84545" fill-opacity="0.05"/>
<path d="M931.325 346.73L991.536 367.222L973.486 257.447L931.325 346.73ZM991.944 368.361L930.612 347.49L930.372 346.789L973.318 255.845L974.055 255.989L992.449 367.805L991.944 368.361Z" fill="#E84545" fill-opacity="0.05"/>
<path d="M977.289 133.208L1009.08 180.962L1010.03 96.1952L977.289 133.208ZM1009.15 182.611L976.433 133.463L976.473 132.812L1010.18 94.7177L1010.85 95.0748L1009.87 182.317L1009.15 182.611Z" fill="#E84545" fill-opacity="0.05"/>
<path d="M879.017 263.712L881.996 409.729L930.203 346.992L879.017 263.712ZM881.916 411.253L881.22 410.939L878.185 262.212L878.905 261.914L931.044 346.74L931.012 347.353L881.916 411.253Z" fill="#E84545" fill-opacity="0.05"/>
<path d="M900.27 699.309L884.303 761.602L940.133 735.242L900.27 699.309ZM883.822 762.863L883.294 762.273L899.67 698.371L900.294 698.128L941.182 734.989L941.094 735.822L883.822 762.863Z" fill="#E84545" fill-opacity="0.05"/>
<path d="M1002.02 11.6894L957.014 100.667L1010 94.6347L1002.02 11.6894ZM956.293 101.716L955.917 100.987L1001.94 9.9915L1002.67 10.1869L1010.85 95.012L1010.49 95.5472L956.293 101.716Z" fill="#E84545" fill-opacity="0.05"/>
<path d="M1002.71 10.5354L1010.62 92.6819L1035.39 -7.28815L1002.71 10.5354ZM1010.83 95.2056L1010.05 95.1237L1001.88 10.2977L1002.11 9.80392L1035.86 -8.60102L1036.41 -8.02544L1010.83 95.2056Z" fill="#E84545" fill-opacity="0.05"/>
<path d="M866.485 610.79H945.659L949.687 536.091L866.485 610.79ZM946.035 611.752H865.284L865.044 610.886L949.903 534.696L950.543 535.112L946.435 611.302L946.035 611.752Z" fill="#E84545" fill-opacity="0.05"/>
<path d="M865.933 611.753L895.009 681.662L945.162 611.753H865.933ZM895.225 682.839L894.561 682.74L864.924 611.487L865.284 610.79H946.035L946.339 611.585L895.225 682.839Z" fill="#E84545" fill-opacity="0.05"/>
<path d="M900.591 698.396L940.582 734.446L945.563 613.071L900.591 698.396ZM940.702 735.76L899.814 698.899L899.718 698.256L945.699 611.013L946.435 611.294L941.342 735.398L940.702 735.76Z" fill="#E84545" fill-opacity="0.05"/>
<path d="M895.378 682.621L900.142 697.449L942.784 616.54L895.378 682.621ZM900.391 698.771L899.678 698.686L894.545 682.697L894.617 682.21L945.731 610.958L946.371 611.529L900.391 698.771Z" fill="#E84545" fill-opacity="0.05"/>
<path d="M976.914 134.183L961.971 195.174L1008.75 182.015L976.914 134.183ZM961.482 196.299L961.002 195.694L976.361 133.026L977.058 132.861L1009.78 182.01L1009.55 182.779L961.482 196.299Z" fill="#E84545" fill-opacity="0.05"/>
<path d="M908.367 485.503L866.198 609.85L949.527 535.029L908.367 485.503ZM865.525 611.656L864.908 611.09L907.854 484.469L908.511 484.31L950.424 534.741L950.384 535.467L865.525 611.656Z" fill="#E84545" fill-opacity="0.05"/>
<path d="M888.131 100.49L883.142 149.505L954.756 101.691L888.131 100.49ZM882.838 150.805L882.245 150.327L887.378 99.9447L887.787 99.5222L956.261 100.755L956.454 101.657L882.838 150.805Z" fill="#E84545" fill-opacity="0.05"/>
<path d="M888.636 99.5377L955.781 100.747L944.755 19.9843L888.636 99.5377ZM956.254 101.718L887.771 100.485L887.475 99.6917L944.698 18.5674L945.403 18.8003L956.654 101.159L956.254 101.718Z" fill="#E84545" fill-opacity="0.05"/>
<path d="M946.46 610.878L972.045 616.763L950.407 537.596L946.46 610.878ZM972.565 617.862L945.955 611.744L945.635 611.24L949.743 535.051L950.52 534.931L973.022 617.239L972.565 617.862Z" fill="#E84545" fill-opacity="0.05"/>
<path d="M879.346 262.634L930.676 346.145L972.957 256.61L879.346 262.634ZM930.404 347.312L878.257 262.486L878.561 261.72L973.646 255.602L974.014 256.32L931.068 347.264L930.404 347.312Z" fill="#E84545" fill-opacity="0.05"/>
<path d="M883.062 151.16L885.08 234.439L960.418 195.805L883.062 151.16ZM884.856 235.602L884.295 235.173L882.245 150.399L882.822 149.952L961.563 195.397L961.547 196.274L884.856 235.602Z" fill="#E84545" fill-opacity="0.05"/>
<path d="M886.056 234.987L973.125 255.466L961.114 196.495L886.056 234.987ZM973.59 256.554L884.623 235.631L884.543 234.716L961.234 195.388L961.778 195.716L974.054 255.968L973.59 256.554Z" fill="#E84545" fill-opacity="0.05"/>
<path d="M1010.85 95.1414L1009.94 176.019L1034.56 -0.558044L1010.85 95.1414ZM1009.86 182.39L1009.06 182.303L1010.05 95.0615L1010.07 94.9316L1035.64 -8.29945L1036.42 -8.08289L1009.86 182.39Z" fill="#E84545" fill-opacity="0.05"/>
<path d="M945.466 19.2942L956.477 99.8756L1001.5 10.8434L945.466 19.2942ZM956.597 101.487L955.86 101.315L944.609 18.9563L944.954 18.4009L1002.23 9.76441L1002.62 10.4921L956.597 101.487Z" fill="#E84545" fill-opacity="0.05"/>
<path d="M883.99 150.626L961.138 195.152L976.184 133.752L883.99 150.626ZM961.218 196.264L882.469 150.819L882.589 149.909L976.689 132.686L977.129 133.297L961.77 195.967L961.218 196.264Z" fill="#E84545" fill-opacity="0.05"/>
<path d="M884.992 235.717L879.114 261.685L970.419 255.809L884.992 235.717ZM878.602 262.682L878.193 262.074L884.311 235.033L884.776 234.686L973.743 255.61L973.687 256.563L878.602 262.682Z" fill="#E84545" fill-opacity="0.05"/>
<path d="M956.149 101.858L884.783 149.507L976.016 132.81L956.149 101.858ZM882.709 150.86L882.453 149.964L956.061 100.816L956.573 100.943L977.065 132.868L976.809 133.637L882.709 150.86Z" fill="#E84545" fill-opacity="0.05"/>
<path d="M931.029 347.632L908.911 482.96L991.344 368.156L931.029 347.632ZM908.527 484.965L907.83 484.557L930.332 346.934L930.829 346.563L992.168 367.435L992.361 368.213L908.527 484.965Z" fill="#E84545" fill-opacity="0.05"/>
<path d="M908.767 484.626L949.951 534.172L991.127 369.925L908.767 484.626ZM949.855 535.421L907.942 484.99L907.918 484.335L991.752 367.583L992.44 368.037L950.527 535.22L949.855 535.421Z" fill="#E84545" fill-opacity="0.05"/>
<path d="M941.494 734.905L993.609 736.115L972.565 619.24L941.494 734.905ZM994.098 737.089L940.934 735.856L940.565 735.227L972.26 617.242L973.029 617.288L994.498 736.506L994.098 737.089Z" fill="#E84545" fill-opacity="0.05"/>
<path d="M950.76 535.811L972.701 616.065L996.637 552.553L950.76 535.811ZM973.005 617.588L972.261 617.54L949.759 535.232L950.255 534.62L997.309 551.791L997.549 552.451L973.005 617.588Z" fill="#E84545" fill-opacity="0.05"/>
<path d="M974.126 256.083L1035.3 382.656L1009.24 183.72L974.126 256.083ZM1035.68 385.363L973.317 256.324V255.84L1009.12 182.067L1009.86 182.236L1036.42 385.046L1035.68 385.363Z" fill="#E84545" fill-opacity="0.05"/>
<path d="M992.4 367.528L1035.15 384.273L974.527 258.815L992.4 367.528ZM1035.9 385.58L991.936 368.357L991.664 367.992L973.27 256.176L974.014 255.841L1036.37 384.88L1035.9 385.58Z" fill="#E84545" fill-opacity="0.05"/>
<path d="M9.41885 149.151C9.41885 152.441 5.31299 152.441 5.31299 149.151C5.31299 145.861 9.41885 145.861 9.41885 149.151Z" fill="#E84545" fill-opacity="0.05"/>
<path d="M9.41885 439.204C9.41885 442.494 5.31299 442.494 5.31299 439.204C5.31299 435.913 9.41885 435.913 9.41885 439.204Z" fill="#E84545" fill-opacity="0.05"/>
<path d="M27.8101 149.151C27.8101 152.441 23.7471 152.441 23.7471 149.151C23.7471 145.861 27.8101 145.861 27.8101 149.151Z" fill="#E84545" fill-opacity="0.05"/>
<path d="M27.8101 247.446C27.8101 250.736 23.7471 250.736 23.7471 247.446C23.7471 244.206 27.8101 244.206 27.8101 247.446Z" fill="#E84545" fill-opacity="0.05"/>
<path d="M31.9163 553.486C31.9163 556.777 27.8101 556.777 27.8101 553.486C27.8101 550.197 31.9163 550.197 31.9163 553.486Z" fill="#E84545" fill-opacity="0.05"/>
<path d="M39.0597 686.225C39.0597 689.515 34.9961 689.515 34.9961 686.225C34.9961 682.936 39.0597 682.936 39.0597 686.225Z" fill="#E84545" fill-opacity="0.05"/>
<path d="M41.1127 297.879C41.1127 301.117 37.0068 301.117 37.0068 297.879C37.0068 294.589 41.1127 294.589 41.1127 297.879Z" fill="#E84545" fill-opacity="0.05"/>
<path d="M59.5038 482.234C59.5038 485.472 55.4414 485.472 55.4414 482.234C55.4414 478.944 59.5038 478.944 59.5038 482.234Z" fill="#E84545" fill-opacity="0.05"/>
<path d="M62.5834 95.068C62.5834 98.3588 58.4775 98.3588 58.4775 95.068C58.4775 91.7782 62.5834 91.7782 62.5834 95.068Z" fill="#E84545" fill-opacity="0.05"/>
<path d="M67.716 167.607C67.716 170.845 63.6099 170.845 63.6099 167.607C63.6099 164.316 67.716 164.316 67.716 167.607Z" fill="#E84545" fill-opacity="0.05"/>
<path d="M85.0825 699.747C85.0825 703.037 80.9761 703.037 80.9761 699.747C80.9761 696.456 85.0825 696.456 85.0825 699.747Z" fill="#E84545" fill-opacity="0.05"/>
<path d="M96.3302 666.588C96.3302 669.827 92.2246 669.827 92.2246 666.588C92.2246 663.297 96.3302 663.297 96.3302 666.588Z" fill="#E84545" fill-opacity="0.05"/>
<path d="M98.3835 208.117C98.3835 211.408 94.2778 211.408 94.2778 208.117C94.2778 204.879 98.3835 204.879 98.3835 208.117Z" fill="#E84545" fill-opacity="0.05"/>
<path d="M100.436 385.121C100.436 388.41 96.3301 388.41 96.3301 385.121C96.3301 381.83 100.436 381.83 100.436 385.121Z" fill="#E84545" fill-opacity="0.05"/>
<path d="M100.436 289.241C100.436 292.532 96.3301 292.532 96.3301 289.241C96.3301 285.951 100.436 285.951 100.436 289.241Z" fill="#E84545" fill-opacity="0.05"/>
<path d="M102.447 42.2182C102.447 45.51 98.3833 45.51 98.3833 42.2182C98.3833 38.9284 102.447 38.9284 102.447 42.2182Z" fill="#E84545" fill-opacity="0.05"/>
<path d="M108.606 428.15C108.606 431.44 104.5 431.44 104.5 428.15C104.5 424.86 108.606 424.86 108.606 428.15Z" fill="#E84545" fill-opacity="0.05"/>
<path d="M139.273 77.8461C139.273 81.1359 135.167 81.1359 135.167 77.8461C135.167 74.5553 139.273 74.5553 139.273 77.8461Z" fill="#E84545" fill-opacity="0.05"/>
<path d="M145.432 147.917C145.432 151.207 141.327 151.207 141.327 147.917C141.327 144.627 145.432 144.627 145.432 147.917Z" fill="#E84545" fill-opacity="0.05"/>
<path d="M150.523 657.951C150.523 661.24 146.417 661.24 146.417 657.951C146.417 654.66 150.523 654.66 150.523 657.951Z" fill="#E84545" fill-opacity="0.05"/>
<path d="M158.692 555.953C158.692 559.244 154.629 559.244 154.629 555.953C154.629 552.664 158.692 552.664 158.692 555.953Z" fill="#E84545" fill-opacity="0.05"/>
<path d="M159.718 503.105C159.718 506.396 155.655 506.396 155.655 503.105C155.655 499.814 159.718 499.814 159.718 503.105Z" fill="#E84545" fill-opacity="0.05"/>
<path d="M160.745 734.14C160.745 737.43 156.639 737.43 156.639 734.14C156.639 730.901 160.745 730.901 160.745 734.14Z" fill="#E84545" fill-opacity="0.05"/>
<path d="M165.878 23.7631C165.878 27.0529 161.771 27.0529 161.771 23.7631C161.771 20.5243 165.878 20.5243 165.878 23.7631Z" fill="#E84545" fill-opacity="0.05"/>
<path d="M167.888 726.788C167.888 730.078 163.825 730.078 163.825 726.788C163.825 723.498 167.888 723.498 167.888 726.788Z" fill="#E84545" fill-opacity="0.05"/>
<path d="M171.993 376.535C171.993 379.774 167.888 379.774 167.888 376.535C167.888 373.245 171.993 373.245 171.993 376.535Z" fill="#E84545" fill-opacity="0.05"/>
<path d="M174.047 310.166C174.047 313.404 169.941 313.404 169.941 310.166C169.941 306.875 174.047 306.875 174.047 310.166Z" fill="#E84545" fill-opacity="0.05"/>
<path d="M179.137 248.679C179.137 251.97 175.073 251.97 175.073 248.679C175.073 245.441 179.137 245.441 179.137 248.679Z" fill="#E84545" fill-opacity="0.05"/>
<path d="M204.714 420.747C204.714 424.038 200.608 424.038 200.608 420.747C200.608 417.457 204.714 417.457 204.714 420.747Z" fill="#E84545" fill-opacity="0.05"/>
<path d="M214.937 354.377C214.937 357.668 210.873 357.668 210.873 354.377C210.873 351.139 214.937 351.139 214.937 354.377Z" fill="#E84545" fill-opacity="0.05"/>
<path d="M215.964 181.076C215.964 184.366 211.857 184.366 211.857 181.076C211.857 177.837 215.964 177.837 215.964 181.076Z" fill="#E84545" fill-opacity="0.05"/>
<path d="M240.515 311.399C240.515 314.638 236.408 314.638 236.408 311.399C236.408 308.109 240.515 308.109 240.515 311.399Z" fill="#E84545" fill-opacity="0.05"/>
<path d="M242.568 140.565C242.568 143.804 238.462 143.804 238.462 140.565C238.462 137.275 242.568 137.275 242.568 140.565Z" fill="#E84545" fill-opacity="0.05"/>
<path d="M248.685 100.004C248.685 103.242 244.578 103.242 244.578 100.004C244.578 96.7139 248.685 96.7139 248.685 100.004Z" fill="#E84545" fill-opacity="0.05"/>
<path d="M251.763 758.764C251.763 762.003 247.658 762.003 247.658 758.764C247.658 755.475 251.763 755.475 251.763 758.764Z" fill="#E84545" fill-opacity="0.05"/>
<path d="M254.843 504.339C254.843 507.629 250.737 507.629 250.737 504.339C250.737 501.049 254.843 501.049 254.843 504.339Z" fill="#E84545" fill-opacity="0.05"/>
<path d="M255.826 646.898C255.826 650.188 251.763 650.188 251.763 646.898C251.763 643.608 255.826 643.608 255.826 646.898Z" fill="#E84545" fill-opacity="0.05"/>
<path d="M258.906 579.294C258.906 582.584 254.843 582.584 254.843 579.294C254.843 576.003 258.906 576.003 258.906 579.294Z" fill="#E84545" fill-opacity="0.05"/>
<path d="M277.298 431.8C277.298 435.09 273.235 435.09 273.235 431.8C273.235 428.561 277.298 428.561 277.298 431.8Z" fill="#E84545" fill-opacity="0.05"/>
<path d="M295.733 161.438C295.733 164.728 291.626 164.728 291.626 161.438C291.626 158.148 295.733 158.148 295.733 161.438Z" fill="#E84545" fill-opacity="0.05"/>
<path d="M298.811 238.861C298.811 242.151 294.705 242.151 294.705 238.861C294.705 235.57 298.811 235.57 298.811 238.861Z" fill="#E84545" fill-opacity="0.05"/>
<path d="M301.849 69.2607C301.849 72.5505 297.785 72.5505 297.785 69.2607C297.785 65.9699 301.849 65.9699 301.849 69.2607Z" fill="#E84545" fill-opacity="0.05"/>
<path d="M308.008 32.3993C308.008 35.6892 303.902 35.6892 303.902 32.3993C303.902 29.1095 308.008 29.1095 308.008 32.3993Z" fill="#E84545" fill-opacity="0.05"/>
<path d="M313.098 355.611C313.098 358.902 309.035 358.902 309.035 355.611C309.035 352.321 313.098 352.321 313.098 355.611Z" fill="#E84545" fill-opacity="0.05"/>
<path d="M318.231 297.879C318.231 301.117 314.125 301.117 314.125 297.879C314.125 294.589 318.231 294.589 318.231 297.879Z" fill="#E84545" fill-opacity="0.05"/>
<path d="M319.257 578.061C319.257 581.351 315.151 581.351 315.151 578.061C315.151 574.769 319.257 574.769 319.257 578.061Z" fill="#E84545" fill-opacity="0.05"/>
<path d="M329.479 348.26C329.479 351.55 325.373 351.55 325.373 348.26C325.373 344.969 329.479 344.969 329.479 348.26Z" fill="#E84545" fill-opacity="0.05"/>
<path d="M335.595 704.683C335.595 707.921 331.49 707.921 331.49 704.683C331.49 701.392 335.595 701.392 335.595 704.683Z" fill="#E84545" fill-opacity="0.05"/>
<path d="M356.04 452.723C356.04 456.013 351.978 456.013 351.978 452.723C351.978 449.433 356.04 449.433 356.04 452.723Z" fill="#E84545" fill-opacity="0.05"/>
<path d="M367.29 499.403C367.29 502.694 363.227 502.694 363.227 499.403C363.227 496.114 367.29 496.114 367.29 499.403Z" fill="#E84545" fill-opacity="0.05"/>
<path d="M372.423 659.185C372.423 662.474 368.316 662.474 368.316 659.185C368.316 655.894 372.423 655.894 372.423 659.185Z" fill="#E84545" fill-opacity="0.05"/>
<path d="M375.459 205.701C375.459 208.94 371.396 208.94 371.396 205.701C371.396 202.411 375.459 202.411 375.459 205.701Z" fill="#E84545" fill-opacity="0.05"/>
<path d="M377.512 9.06015C377.512 12.299 373.448 12.299 373.448 9.06015C373.448 5.76936 377.512 5.76936 377.512 9.06015Z" fill="#E84545" fill-opacity="0.05"/>
<path d="M377.512 182.31C377.512 185.6 373.448 185.6 373.448 182.31C373.448 179.071 377.512 179.071 377.512 182.31Z" fill="#E84545" fill-opacity="0.05"/>
<path d="M390.814 372.834C390.814 376.124 386.708 376.124 386.708 372.834C386.708 369.544 390.814 369.544 390.814 372.834Z" fill="#E84545" fill-opacity="0.05"/>
<path d="M395.946 86.4825C395.946 89.7213 391.84 89.7213 391.84 86.4825C391.84 83.1927 395.946 83.1927 395.946 86.4825Z" fill="#E84545" fill-opacity="0.05"/>
<path d="M397.958 278.189C397.958 281.479 393.894 281.479 393.894 278.189C393.894 274.899 397.958 274.899 397.958 278.189Z" fill="#E84545" fill-opacity="0.05"/>
<path d="M409.207 737.842C409.207 741.132 405.143 741.132 405.143 737.842C405.143 734.551 409.207 734.551 409.207 737.842Z" fill="#E84545" fill-opacity="0.05"/>
<path d="M415.365 138.097C415.365 141.388 411.26 141.388 411.26 138.097C411.26 134.808 415.365 134.808 415.365 138.097Z" fill="#E84545" fill-opacity="0.05"/>
<path d="M419.428 592.814C419.428 596.105 415.365 596.105 415.365 592.814C415.365 589.524 419.428 589.524 419.428 592.814Z" fill="#E84545" fill-opacity="0.05"/>
<path d="M421.482 211.819C421.482 215.109 417.419 215.109 417.419 211.819C417.419 208.528 421.482 208.528 421.482 211.819Z" fill="#E84545" fill-opacity="0.05"/>
<path d="M427.641 327.336C427.641 330.626 423.534 330.626 423.534 327.336C423.534 324.097 427.641 324.097 427.641 327.336Z" fill="#E84545" fill-opacity="0.05"/>
<path d="M441.926 471.129C441.926 474.419 437.862 474.419 437.862 471.129C437.862 467.89 441.926 467.89 441.926 471.129Z" fill="#E84545" fill-opacity="0.05"/>
<path d="M447.06 23.7631C447.06 27.0529 442.953 27.0529 442.953 23.7631C442.953 20.5243 447.06 20.5243 447.06 23.7631Z" fill="#E84545" fill-opacity="0.05"/>
<path d="M483.886 9.06015C483.886 12.299 479.78 12.299 479.78 9.06015C479.78 5.76936 483.886 5.76936 483.886 9.06015Z" fill="#E84545" fill-opacity="0.05"/>
<path d="M484.869 90.1325C484.869 93.4233 480.806 93.4233 480.806 90.1325C480.806 86.8937 484.869 86.8937 484.869 90.1325Z" fill="#E84545" fill-opacity="0.05"/>
<path d="M487.948 677.64C487.948 680.879 483.886 680.879 483.886 677.64C483.886 674.35 487.948 674.35 487.948 677.64Z" fill="#E84545" fill-opacity="0.05"/>
<path d="M491.027 243.796C491.027 247.086 486.922 247.086 486.922 243.796C486.922 240.506 491.027 240.506 491.027 243.796Z" fill="#E84545" fill-opacity="0.05"/>
<path d="M508.394 589.113C508.394 592.404 504.33 592.404 504.33 589.113C504.33 585.874 508.394 585.874 508.394 589.113Z" fill="#E84545" fill-opacity="0.05"/>
<path d="M510.447 401.108C510.447 404.398 506.383 404.398 506.383 401.108C506.383 397.819 510.447 397.819 510.447 401.108Z" fill="#E84545" fill-opacity="0.05"/>
<path d="M515.58 295.41C515.58 298.701 511.474 298.701 511.474 295.41C511.474 292.12 515.58 292.12 515.58 295.41Z" fill="#E84545" fill-opacity="0.05"/>
<path d="M522.722 254.849C522.722 258.139 518.616 258.139 518.616 254.849C518.616 251.559 522.722 251.559 522.722 254.849Z" fill="#E84545" fill-opacity="0.05"/>
<path d="M537.051 498.171C537.051 501.461 532.945 501.461 532.945 498.171C532.945 494.932 537.051 494.932 537.051 498.171Z" fill="#E84545" fill-opacity="0.05"/>
<path d="M546.247 158.97C546.247 162.261 542.142 162.261 542.142 158.97C542.142 155.68 546.247 155.68 546.247 158.97Z" fill="#E84545" fill-opacity="0.05"/>
<path d="M555.442 735.375C555.442 738.664 551.336 738.664 551.336 735.375C551.336 732.135 555.442 732.135 555.442 735.375Z" fill="#E84545" fill-opacity="0.05"/>
<path d="M560.574 80.3132C560.574 83.6039 556.469 83.6039 556.469 80.3132C556.469 77.0233 560.574 77.0233 560.574 80.3132Z" fill="#E84545" fill-opacity="0.05"/>
<path d="M562.585 193.414C562.585 196.653 558.521 196.653 558.521 193.414C558.521 190.123 562.585 190.123 562.585 193.414Z" fill="#E84545" fill-opacity="0.05"/>
<path d="M585.083 331.037C585.083 334.328 581.02 334.328 581.02 331.037C581.02 327.747 585.083 327.747 585.083 331.037Z" fill="#E84545" fill-opacity="0.05"/>
<path d="M586.109 670.238C586.109 673.529 582.047 673.529 582.047 670.238C582.047 666.998 586.109 666.998 586.109 670.238Z" fill="#E84545" fill-opacity="0.05"/>
<path d="M608.608 241.328C608.608 244.619 604.544 244.619 604.544 241.328C604.544 238.038 608.608 238.038 608.608 241.328Z" fill="#E84545" fill-opacity="0.05"/>
<path d="M609.635 305.23C609.635 308.52 605.571 308.52 605.571 305.23C605.571 301.94 609.635 301.94 609.635 305.23Z" fill="#E84545" fill-opacity="0.05"/>
<path d="M614.767 70.4946C614.767 73.7844 610.661 73.7844 610.661 70.4946C610.661 67.2038 614.767 67.2038 614.767 70.4946Z" fill="#E84545" fill-opacity="0.05"/>
<path d="M617.804 456.425C617.804 459.664 613.741 459.664 613.741 456.425C613.741 453.136 617.804 453.136 617.804 456.425Z" fill="#E84545" fill-opacity="0.05"/>
<path d="M630.08 140.565C630.08 143.804 626.016 143.804 626.016 140.565C626.016 137.275 630.08 137.275 630.08 140.565Z" fill="#E84545" fill-opacity="0.05"/>
<path d="M631.105 16.4115C631.105 19.7014 627.042 19.7014 627.042 16.4115C627.042 13.1217 631.105 13.1217 631.105 16.4115Z" fill="#E84545" fill-opacity="0.05"/>
<path d="M642.355 95.068C642.355 98.3588 638.249 98.3588 638.249 95.068C638.249 91.7782 642.355 91.7782 642.355 95.068Z" fill="#E84545" fill-opacity="0.05"/>
<path d="M652.578 555.953C652.578 559.244 648.515 559.244 648.515 555.953C648.515 552.664 652.578 552.664 652.578 555.953Z" fill="#E84545" fill-opacity="0.05"/>
<path d="M678.154 517.859C678.154 521.149 674.048 521.149 674.048 517.859C674.048 514.569 678.154 514.569 678.154 517.859Z" fill="#E84545" fill-opacity="0.05"/>
<path d="M691.456 377.769C691.456 381.007 687.351 381.007 687.351 377.769C687.351 374.479 691.456 374.479 691.456 377.769Z" fill="#E84545" fill-opacity="0.05"/>
<path d="M692.483 262.201C692.483 265.49 688.377 265.49 688.377 262.201C688.377 258.911 692.483 258.911 692.483 262.201Z" fill="#E84545" fill-opacity="0.05"/>
<path d="M693.467 660.419C693.467 663.709 689.403 663.709 689.403 660.419C689.403 657.129 693.467 657.129 693.467 660.419Z" fill="#E84545" fill-opacity="0.05"/>
<path d="M701.68 721.854C701.68 725.144 697.573 725.144 697.573 721.854C697.573 718.614 701.68 718.614 701.68 721.854Z" fill="#E84545" fill-opacity="0.05"/>
<path d="M709.849 188.478C709.849 191.768 705.742 191.768 705.742 188.478C705.742 185.189 709.849 185.189 709.849 188.478Z" fill="#E84545" fill-opacity="0.05"/>
<path d="M741.543 730.49C741.543 733.729 737.437 733.729 737.437 730.49C737.437 727.2 741.543 727.2 741.543 730.49Z" fill="#E84545" fill-opacity="0.05"/>
<path d="M744.623 31.1664C744.623 34.4562 740.517 34.4562 740.517 31.1664C740.517 27.8756 744.623 27.8756 744.623 31.1664Z" fill="#E84545" fill-opacity="0.05"/>
<path d="M744.623 206.884C744.623 210.174 740.517 210.174 740.517 206.884C740.517 203.645 744.623 203.645 744.623 206.884Z" fill="#E84545" fill-opacity="0.05"/>
<path d="M746.676 436.736C746.676 440.026 742.569 440.026 742.569 436.736C742.569 433.445 746.676 433.445 746.676 436.736Z" fill="#E84545" fill-opacity="0.05"/>
<path d="M750.739 93.8339C750.739 97.1237 746.676 97.1237 746.676 93.8339C746.676 90.5441 750.739 90.5441 750.739 93.8339Z" fill="#E84545" fill-opacity="0.05"/>
<path d="M776.316 184.778C776.316 188.068 772.21 188.068 772.21 184.778C772.21 181.487 776.316 181.487 776.316 184.778Z" fill="#E84545" fill-opacity="0.05"/>
<path d="M784.485 594.048C784.485 597.339 780.422 597.339 780.422 594.048C780.422 590.759 784.485 590.759 784.485 594.048Z" fill="#E84545" fill-opacity="0.05"/>
<path d="M790.645 496.937C790.645 500.227 786.538 500.227 786.538 496.937C786.538 493.698 790.645 493.698 790.645 496.937Z" fill="#E84545" fill-opacity="0.05"/>
<path d="M796.761 316.283C796.761 319.574 792.655 319.574 792.655 316.283C792.655 312.993 796.761 312.993 796.761 316.283Z" fill="#E84545" fill-opacity="0.05"/>
<path d="M797.787 376.535C797.787 379.774 793.681 379.774 793.681 376.535C793.681 373.245 797.787 373.245 797.787 376.535Z" fill="#E84545" fill-opacity="0.05"/>
<path d="M803.905 243.796C803.905 247.086 799.84 247.086 799.84 243.796C799.84 240.506 803.905 240.506 803.905 243.796Z" fill="#E84545" fill-opacity="0.05"/>
<path d="M805.954 547.369C805.954 550.609 801.895 550.609 801.895 547.369C801.895 544.078 805.954 544.078 805.954 547.369Z" fill="#E84545" fill-opacity="0.05"/>
<path d="M811.087 415.863C811.087 419.102 806.987 419.102 806.987 415.863C806.987 412.574 811.087 412.574 811.087 415.863Z" fill="#E84545" fill-opacity="0.05"/>
<path d="M815.156 188.478C815.156 191.768 811.088 191.768 811.088 188.478C811.088 185.189 815.156 185.189 815.156 188.478Z" fill="#E84545" fill-opacity="0.05"/>
<path d="M826.399 725.554C826.399 728.844 822.339 728.844 822.339 725.554C822.339 722.264 826.399 722.264 826.399 725.554Z" fill="#E84545" fill-opacity="0.05"/>
<path d="M838.674 736.608C838.674 739.898 834.614 739.898 834.614 736.608C834.614 733.317 838.674 733.317 838.674 736.608Z" fill="#E84545" fill-opacity="0.05"/>
<path d="M846.85 47.1539C846.85 50.3927 842.782 50.3927 842.782 47.1539C842.782 43.8641 846.85 43.8641 846.85 47.1539Z" fill="#E84545" fill-opacity="0.05"/>
<path d="M853.008 79.08C853.008 82.3698 848.9 82.3698 848.9 79.08C848.9 75.7892 853.008 75.7892 853.008 79.08Z" fill="#E84545" fill-opacity="0.05"/>
<path d="M867.335 611.271C867.335 614.561 863.227 614.561 863.227 611.271C863.227 607.981 867.335 607.981 867.335 611.271Z" fill="#E84545" fill-opacity="0.05"/>
<path d="M880.595 262.201C880.595 265.49 876.527 265.49 876.527 262.201C876.527 258.911 880.595 258.911 880.595 262.201Z" fill="#E84545" fill-opacity="0.05"/>
<path d="M883.671 410.928C883.671 414.219 879.562 414.219 879.562 410.928C879.562 407.638 883.671 407.638 883.671 410.928Z" fill="#E84545" fill-opacity="0.05"/>
<path d="M884.696 150.385C884.696 153.675 880.596 153.675 880.596 150.385C880.596 147.094 884.696 147.094 884.696 150.385Z" fill="#E84545" fill-opacity="0.05"/>
<path d="M885.728 762.414C885.728 765.704 881.62 765.704 881.62 762.414C881.62 759.125 885.728 759.125 885.728 762.414Z" fill="#E84545" fill-opacity="0.05"/>
<path d="M886.753 235.159C886.753 238.449 882.646 238.449 882.646 235.159C882.646 231.92 886.753 231.92 886.753 235.159Z" fill="#E84545" fill-opacity="0.05"/>
<path d="M889.828 100.004C889.828 103.242 885.729 103.242 885.729 100.004C885.729 96.7139 889.828 96.7139 889.828 100.004Z" fill="#E84545" fill-opacity="0.05"/>
<path d="M896.971 682.524C896.971 685.814 892.871 685.814 892.871 682.524C892.871 679.285 896.971 679.285 896.971 682.524Z" fill="#E84545" fill-opacity="0.05"/>
<path d="M902.064 698.514C902.064 701.804 898.004 701.804 898.004 698.514C898.004 695.222 902.064 695.222 902.064 698.514Z" fill="#E84545" fill-opacity="0.05"/>
<path d="M908.222 6.59246C908.222 9.88324 904.114 9.88324 904.114 6.59246C904.114 3.30167 908.222 3.30167 908.222 6.59246Z" fill="#E84545" fill-opacity="0.05"/>
<path d="M910.28 484.649C910.28 487.939 906.172 487.939 906.172 484.649C906.172 481.411 910.28 481.411 910.28 484.649Z" fill="#E84545" fill-opacity="0.05"/>
<path d="M932.774 347.026C932.774 350.316 928.666 350.316 928.666 347.026C928.666 343.736 932.774 343.736 932.774 347.026Z" fill="#E84545" fill-opacity="0.05"/>
<path d="M943 735.375C943 738.664 938.893 738.664 938.893 735.375C938.893 732.135 943 732.135 943 735.375Z" fill="#E84545" fill-opacity="0.05"/>
<path d="M947.06 18.8786C947.06 22.1694 943 22.1694 943 18.8786C943 15.5888 947.06 15.5888 947.06 18.8786Z" fill="#E84545" fill-opacity="0.05"/>
<path d="M948.085 611.271C948.085 614.561 944.025 614.561 944.025 611.271C944.025 607.981 948.085 607.981 948.085 611.271Z" fill="#E84545" fill-opacity="0.05"/>
<path d="M952.193 535.082C952.193 538.32 948.085 538.32 948.085 535.082C948.085 531.792 952.193 531.792 952.193 535.082Z" fill="#E84545" fill-opacity="0.05"/>
<path d="M956.254 -3.2784C956.254 0.011421 952.193 0.011421 952.193 -3.2784C952.193 -6.51722 956.254 -6.51722 956.254 -3.2784Z" fill="#E84545" fill-opacity="0.05"/>
<path d="M958.311 101.236C958.311 104.475 954.243 104.475 954.243 101.236C954.243 97.9466 958.311 97.9466 958.311 101.236Z" fill="#E84545" fill-opacity="0.05"/>
<path d="M963.444 195.831C963.444 199.121 959.336 199.121 959.336 195.831C959.336 192.591 963.444 192.591 963.444 195.831Z" fill="#E84545" fill-opacity="0.05"/>
<path d="M974.695 617.389C974.695 620.679 970.587 620.679 970.587 617.389C970.587 614.15 974.695 614.15 974.695 617.389Z" fill="#E84545" fill-opacity="0.05"/>
<path d="M975.72 256.082C975.72 259.372 971.612 259.372 971.612 256.082C971.612 252.793 975.72 252.793 975.72 256.082Z" fill="#E84545" fill-opacity="0.05"/>
<path d="M978.755 133.162C978.755 136.453 974.695 136.453 974.695 133.162C974.695 129.872 978.755 129.872 978.755 133.162Z" fill="#E84545" fill-opacity="0.05"/>
<path d="M994.106 367.898C994.106 371.189 990.006 371.189 990.006 367.898C990.006 364.608 994.106 364.608 994.106 367.898Z" fill="#E84545" fill-opacity="0.05"/>
<path d="M996.164 736.608C996.164 739.898 992.056 739.898 992.056 736.608C992.056 733.317 996.164 733.317 996.164 736.608Z" fill="#E84545" fill-opacity="0.05"/>
<path d="M999.239 552.253C999.239 555.543 995.139 555.543 995.139 552.253C995.139 548.963 999.239 548.963 999.239 552.253Z" fill="#E84545" fill-opacity="0.05"/>
<path d="M1004.33 10.2421C1004.33 13.5319 1000.22 13.5319 1000.22 10.2421C1000.22 7.00329 1004.33 7.00329 1004.33 10.2421Z" fill="#E84545" fill-opacity="0.05"/>
<path d="M1011.47 182.31C1011.47 185.6 1007.42 185.6 1007.42 182.31C1007.42 179.071 1011.47 179.071 1011.47 182.31Z" fill="#E84545" fill-opacity="0.05"/>
<path d="M1012.5 95.068C1012.5 98.3588 1008.44 98.3588 1008.44 95.068C1008.44 91.7782 1012.5 91.7782 1012.5 95.068Z" fill="#E84545" fill-opacity="0.05"/>
</g>
<defs>
<clipPath id="clip0_1008_1219">
<rect width="1025" height="770" fill="white" transform="translate(0 -2)"/>
</clipPath>
</defs>
</svg>
